<?xml version="1.0" encoding="utf-8" standalone="no"?>
<!DOCTYPE svg PUBLIC "-//W3C//DTD SVG 1.1//EN"
  "http://www.w3.org/Graphics/SVG/1.1/DTD/svg11.dtd">
<svg xmlns:xlink="http://www.w3.org/1999/xlink" width="648pt" height="364.5pt" viewBox="0 0 648 364.5" xmlns="http://www.w3.org/2000/svg" version="1.1">
 <metadata>
  <rdf:RDF xmlns:dc="http://purl.org/dc/elements/1.1/" xmlns:cc="http://creativecommons.org/ns#" xmlns:rdf="http://www.w3.org/1999/02/22-rdf-syntax-ns#">
   <cc:Work>
    <dc:type rdf:resource="http://purl.org/dc/dcmitype/StillImage"/>
    <dc:date>2022-05-13T18:01:13.528806</dc:date>
    <dc:format>image/svg+xml</dc:format>
    <dc:creator>
     <cc:Agent>
      <dc:title>Matplotlib v3.5.0, https://matplotlib.org/</dc:title>
     </cc:Agent>
    </dc:creator>
   </cc:Work>
  </rdf:RDF>
 </metadata>
 <defs>
  <style type="text/css">*{stroke-linejoin: round; stroke-linecap: butt}</style>
 </defs>
 <g id="figure_1">
  <g id="patch_1">
   <path d="M 0 364.5 
L 648 364.5 
L 648 0 
L 0 0 
z
" style="fill: #ffffff"/>
  </g>
  <g id="axes_1">
   <g id="matplotlib.axis_1"/>
   <g id="matplotlib.axis_2"/>
   <g id="patch_2">
    <path d="M 249.390563 245.113409 
C 257.677271 236.876002 264.25399 227.080768 268.741501 216.292504 
C 273.229013 205.504241 275.539377 193.934364 275.539377 182.249998 
C 275.539377 170.565633 273.229012 158.995756 268.7415 148.207492 
C 264.253988 137.419229 257.677269 127.623995 249.390561 119.386588 
L 186.901156 182.25 
L 249.390563 245.113409 
z
" style="fill: #4c72b0"/>
   </g>
   <g id="patch_3">
    <path d="M 240.526739 119.386589 
C 239.375146 118.241847 238.192315 117.128966 236.979585 116.049205 
C 235.766855 114.969444 234.524684 113.923211 233.254477 112.91169 
L 178.037334 182.25 
L 240.526739 119.386589 
z
" style="fill: #dd8452"/>
   </g>
   <g id="patch_4">
    <path d="M 233.254477 112.91169 
C 219.884058 102.264237 203.715061 95.707959 186.704979 94.036587 
C 169.694897 92.365216 152.559035 95.649037 137.371938 103.490494 
C 122.184841 111.331952 109.585154 123.401299 101.098253 138.237365 
C 92.611351 153.073432 88.594125 170.052335 89.532918 187.118531 
C 90.471711 204.184727 96.327044 220.620551 106.390045 234.436208 
C 116.453047 248.251865 130.300548 258.866381 146.256108 264.994715 
C 162.211668 271.123049 179.604326 272.507494 196.328448 268.980441 
C 213.052571 265.453388 228.404877 257.163158 240.526749 245.113402 
L 178.037334 182.25 
L 233.254477 112.91169 
z
" style="fill: #55a868"/>
   </g>
   <g id="text_1">
    <!-- Gross Fixed Capital -->
    <g transform="translate(284.403199 179.784328)scale(0.09 -0.09)">
     <defs>
      <path id="NimbusSanL-Regu-47" d="M 4538 2496 
L 2592 2496 
L 2592 1971 
L 4013 1971 
L 4013 1841 
C 4013 1003 3398 397 2547 397 
C 2074 397 1645 569 1370 870 
C 1062 1201 877 1756 877 2330 
C 877 3471 1530 4224 2515 4224 
C 3226 4224 3738 3864 3866 3272 
L 4474 3272 
C 4307 4211 3590 4750 2522 4750 
C 1952 4750 1491 4603 1126 4303 
C 589 3856 282 3135 282 2298 
C 282 868 1158 -128 2419 -128 
C 3053 -128 3558 109 4013 616 
L 4160 -7 
L 4538 -7 
L 4538 2496 
z
" transform="scale(0.015625)"/>
      <path id="NimbusSanL-Regu-72" d="M 442 3359 
L 442 0 
L 979 0 
L 979 1741 
C 979 2221 1101 2535 1357 2720 
C 1523 2842 1683 2880 2054 2880 
L 2054 3432 
C 1965 3444 1920 3444 1850 3444 
C 1504 3444 1242 3240 934 2746 
L 934 3359 
L 442 3359 
z
" transform="scale(0.015625)"/>
      <path id="NimbusSanL-Regu-6f" d="M 1741 3456 
C 800 3456 230 2786 230 1663 
C 230 541 794 -128 1747 -128 
C 2688 -128 3264 541 3264 1638 
C 3264 2792 2707 3456 1741 3456 
z
M 1747 2962 
C 2349 2962 2707 2472 2707 1645 
C 2707 861 2336 365 1747 365 
C 1152 365 787 855 787 1663 
C 787 2466 1152 2962 1747 2962 
z
" transform="scale(0.015625)"/>
      <path id="NimbusSanL-Regu-73" d="M 2803 2427 
C 2797 3085 2362 3456 1587 3456 
C 806 3456 301 3054 301 2436 
C 301 1913 570 1665 1363 1474 
L 1862 1353 
C 2234 1263 2381 1130 2381 888 
C 2381 576 2067 365 1600 365 
C 1312 365 1069 448 934 588 
C 851 684 813 779 781 1014 
L 218 1014 
C 243 241 678 -128 1555 -128 
C 2400 -128 2938 285 2938 929 
C 2938 1426 2656 1701 1990 1860 
L 1478 1981 
C 1043 2082 858 2223 858 2458 
C 858 2764 1133 2962 1568 2962 
C 1997 2962 2227 2777 2240 2427 
L 2803 2427 
z
" transform="scale(0.015625)"/>
      <path id="NimbusSanL-Regu-46" d="M 1171 2112 
L 3398 2112 
L 3398 2638 
L 1171 2638 
L 1171 4146 
L 3706 4146 
L 3706 4672 
L 576 4672 
L 576 -14 
L 1171 -14 
L 1171 2112 
z
" transform="scale(0.015625)"/>
      <path id="NimbusSanL-Regu-69" d="M 960 3359 
L 429 3359 
L 429 0 
L 960 0 
L 960 3359 
z
M 960 4672 
L 422 4672 
L 422 3999 
L 960 3999 
L 960 4672 
z
" transform="scale(0.015625)"/>
      <path id="NimbusSanL-Regu-78" d="M 1869 1737 
L 2995 3359 
L 2394 3359 
L 1587 2141 
L 781 3359 
L 173 3359 
L 1293 1712 
L 109 0 
L 717 0 
L 1568 1288 
L 2406 0 
L 3027 0 
L 1869 1737 
z
" transform="scale(0.015625)"/>
      <path id="NimbusSanL-Regu-65" d="M 3283 1529 
C 3283 2034 3245 2338 3149 2584 
C 2931 3127 2419 3456 1792 3456 
C 858 3456 256 2742 256 1645 
C 256 547 838 -128 1779 -128 
C 2547 -128 3078 310 3213 1044 
L 2675 1044 
C 2528 598 2227 365 1798 365 
C 1459 365 1171 520 992 805 
C 864 998 819 1193 813 1529 
L 3283 1529 
z
M 826 1984 
C 870 2577 1248 2962 1786 2962 
C 2310 2962 2714 2530 2714 1984 
C 2714 1984 2714 1984 2707 1984 
L 826 1984 
z
" transform="scale(0.015625)"/>
      <path id="NimbusSanL-Regu-64" d="M 3168 4672 
L 2637 4672 
L 2637 2937 
C 2413 3276 2054 3456 1606 3456 
C 736 3456 166 2761 166 1695 
C 166 566 723 -128 1626 -128 
C 2086 -128 2406 45 2694 461 
L 2694 -2 
L 3168 -2 
L 3168 4672 
z
M 1696 2956 
C 2272 2956 2637 2447 2637 1651 
C 2637 881 2266 372 1702 372 
C 1114 372 723 887 723 1664 
C 723 2440 1114 2956 1696 2956 
z
" transform="scale(0.015625)"/>
      <path id="NimbusSanL-Regu-43" d="M 4237 3229 
C 4051 4252 3462 4750 2438 4750 
C 1811 4750 1306 4552 960 4168 
C 538 3709 307 3045 307 2291 
C 307 1525 544 868 986 414 
C 1344 44 1805 -128 2413 -128 
C 3552 -128 4192 485 4333 1717 
L 3718 1717 
C 3667 1399 3603 1182 3507 997 
C 3315 614 2918 397 2419 397 
C 1491 397 902 1137 902 2298 
C 902 3491 1466 4224 2368 4224 
C 2746 4224 3098 4110 3290 3930 
C 3462 3771 3558 3573 3629 3229 
L 4237 3229 
z
" transform="scale(0.015625)"/>
      <path id="NimbusSanL-Regu-61" d="M 3424 333 
C 3366 320 3341 320 3309 320 
C 3123 320 3021 415 3021 581 
L 3021 2545 
C 3021 3137 2586 3456 1760 3456 
C 1274 3456 870 3316 646 3066 
C 493 2893 429 2702 416 2370 
L 954 2370 
C 998 2777 1242 2962 1741 2962 
C 2221 2962 2490 2783 2490 2465 
L 2490 2325 
C 2490 2101 2355 2006 1933 1955 
C 1178 1860 1062 1834 858 1751 
C 467 1592 269 1292 269 859 
C 269 254 691 -128 1370 -128 
C 1792 -128 2131 19 2509 365 
C 2547 25 2714 -128 3059 -128 
C 3168 -128 3251 -116 3424 -70 
L 3424 333 
z
M 2490 1072 
C 2490 893 2438 785 2278 639 
C 2061 441 1798 340 1485 340 
C 1069 340 826 537 826 874 
C 826 1225 1062 1403 1632 1486 
C 2195 1562 2310 1588 2490 1670 
L 2490 1072 
z
" transform="scale(0.015625)"/>
      <path id="NimbusSanL-Regu-70" d="M 346 -1408 
L 883 -1408 
L 883 320 
C 1165 -27 1478 -180 1914 -180 
C 2778 -180 3347 522 3347 1599 
C 3347 2734 2797 3444 1907 3444 
C 1453 3444 1088 3238 838 2841 
L 838 3349 
L 346 3349 
L 346 -1408 
z
M 1818 2944 
C 2406 2944 2790 2420 2790 1612 
C 2790 843 2400 320 1818 320 
C 1254 320 883 837 883 1632 
C 883 2427 1254 2944 1818 2944 
z
" transform="scale(0.015625)"/>
      <path id="NimbusSanL-Regu-74" d="M 1626 3380 
L 1075 3380 
L 1075 4288 
L 544 4288 
L 544 3380 
L 90 3380 
L 90 2944 
L 544 2944 
L 544 404 
C 544 64 774 -128 1190 -128 
C 1318 -128 1446 -116 1626 -83 
L 1626 366 
C 1555 346 1472 340 1370 340 
C 1139 340 1075 404 1075 641 
L 1075 2944 
L 1626 2944 
L 1626 3380 
z
" transform="scale(0.015625)"/>
      <path id="NimbusSanL-Regu-6c" d="M 973 4672 
L 435 4672 
L 435 -2 
L 973 -2 
L 973 4672 
z
" transform="scale(0.015625)"/>
     </defs>
     <use xlink:href="#NimbusSanL-Regu-47" transform="scale(0.996264)"/>
     <use xlink:href="#NimbusSanL-Regu-72" transform="translate(77.50837 0)scale(0.996264)"/>
     <use xlink:href="#NimbusSanL-Regu-6f" transform="translate(110.6836 0)scale(0.996264)"/>
     <use xlink:href="#NimbusSanL-Regu-73" transform="translate(166.075277 0)scale(0.996264)"/>
     <use xlink:href="#NimbusSanL-Regu-73" transform="translate(215.888477 0)scale(0.996264)"/>
     <use xlink:href="#NimbusSanL-Regu-46" transform="translate(293.396847 0)scale(0.996264)"/>
     <use xlink:href="#NimbusSanL-Regu-69" transform="translate(354.268478 0)scale(0.996264)"/>
     <use xlink:href="#NimbusSanL-Regu-78" transform="translate(376.385262 0)scale(0.996264)"/>
     <use xlink:href="#NimbusSanL-Regu-65" transform="translate(423.210355 0)scale(0.996264)"/>
     <use xlink:href="#NimbusSanL-Regu-64" transform="translate(478.602032 0)scale(0.996264)"/>
     <use xlink:href="#NimbusSanL-Regu-43" transform="translate(561.688878 0)scale(0.996264)"/>
     <use xlink:href="#NimbusSanL-Regu-61" transform="translate(633.618863 0)scale(0.996264)"/>
     <use xlink:href="#NimbusSanL-Regu-70" transform="translate(689.01054 0)scale(0.996264)"/>
     <use xlink:href="#NimbusSanL-Regu-69" transform="translate(744.402217 0)scale(0.996264)"/>
     <use xlink:href="#NimbusSanL-Regu-74" transform="translate(766.519002 0)scale(0.996264)"/>
     <use xlink:href="#NimbusSanL-Regu-61" transform="translate(794.214171 0)scale(0.996264)"/>
     <use xlink:href="#NimbusSanL-Regu-6c" transform="translate(849.605848 0)scale(0.996264)"/>
    </g>
    <!-- Formation -->
    <g transform="translate(284.403199 189.360299)scale(0.09 -0.09)">
     <defs>
      <path id="NimbusSanL-Regu-6d" d="M 448 3359 
L 448 0 
L 986 0 
L 986 2109 
C 986 2597 1338 2988 1773 2988 
C 2170 2988 2394 2744 2394 2314 
L 2394 0 
L 2931 0 
L 2931 2109 
C 2931 2597 3283 2988 3718 2988 
C 4109 2988 4339 2738 4339 2314 
L 4339 0 
L 4877 0 
L 4877 2520 
C 4877 3122 4531 3456 3904 3456 
C 3456 3456 3187 3321 2874 2943 
C 2675 3302 2406 3456 1971 3456 
C 1523 3456 1229 3289 941 2885 
L 941 3359 
L 448 3359 
z
" transform="scale(0.015625)"/>
      <path id="NimbusSanL-Regu-6e" d="M 448 3359 
L 448 0 
L 986 0 
L 986 1853 
C 986 2539 1344 2988 1894 2988 
C 2317 2988 2586 2731 2586 2327 
L 2586 0 
L 3117 0 
L 3117 2539 
C 3117 3097 2701 3456 2054 3456 
C 1555 3456 1235 3263 941 2796 
L 941 3359 
L 448 3359 
z
" transform="scale(0.015625)"/>
     </defs>
     <use xlink:href="#NimbusSanL-Regu-46" transform="scale(0.996264)"/>
     <use xlink:href="#NimbusSanL-Regu-6f" transform="translate(57.883523 0)scale(0.996264)"/>
     <use xlink:href="#NimbusSanL-Regu-72" transform="translate(113.2752 0)scale(0.996264)"/>
     <use xlink:href="#NimbusSanL-Regu-6d" transform="translate(148.941044 0)scale(0.996264)"/>
     <use xlink:href="#NimbusSanL-Regu-61" transform="translate(231.929474 0)scale(0.996264)"/>
     <use xlink:href="#NimbusSanL-Regu-74" transform="translate(287.321151 0)scale(0.996264)"/>
     <use xlink:href="#NimbusSanL-Regu-69" transform="translate(315.016321 0)scale(0.996264)"/>
     <use xlink:href="#NimbusSanL-Regu-6f" transform="translate(337.133105 0)scale(0.996264)"/>
     <use xlink:href="#NimbusSanL-Regu-6e" transform="translate(392.524782 0)scale(0.996264)"/>
    </g>
   </g>
   <g id="text_2">
    <!-- 25.1% -->
    <g transform="translate(231.359945 184.489351)scale(0.09 -0.09)">
     <defs>
      <path id="NimbusSanL-Regu-32" d="M 3238 558 
L 851 558 
C 909 930 1114 1167 1670 1494 
L 2310 1840 
C 2944 2186 3270 2653 3270 3211 
C 3270 3589 3117 3942 2848 4185 
C 2579 4429 2246 4544 1818 4544 
C 1242 4544 813 4339 563 3955 
C 403 3711 333 3429 320 2967 
L 883 2967 
C 902 3275 941 3461 1018 3608 
C 1165 3884 1459 4051 1798 4051 
C 2310 4051 2694 3685 2694 3198 
C 2694 2839 2483 2531 2080 2301 
L 1491 1968 
C 544 1430 269 1000 218 0 
L 3238 0 
L 3238 558 
z
" transform="scale(0.015625)"/>
      <path id="NimbusSanL-Regu-35" d="M 3046 4544 
L 704 4544 
L 365 2086 
L 883 2086 
C 1146 2399 1363 2508 1715 2508 
C 2323 2508 2707 2092 2707 1421 
C 2707 768 2330 372 1715 372 
C 1222 372 922 621 787 1133 
L 224 1133 
C 301 762 365 582 499 415 
C 755 70 1216 -128 1728 -128 
C 2643 -128 3283 537 3283 1497 
C 3283 2394 2688 3008 1818 3008 
C 1498 3008 1242 2925 979 2732 
L 1158 3987 
L 3046 3987 
L 3046 4544 
z
" transform="scale(0.015625)"/>
      <path id="NimbusSanL-Regu-2e" d="M 1222 667 
L 557 667 
L 557 0 
L 1222 0 
L 1222 667 
z
" transform="scale(0.015625)"/>
      <path id="NimbusSanL-Regu-31" d="M 1658 3238 
L 1658 0 
L 2221 0 
L 2221 4545 
L 1850 4545 
C 1651 3847 1523 3751 653 3642 
L 653 3238 
L 1658 3238 
z
" transform="scale(0.015625)"/>
     </defs>
     <use xlink:href="#NimbusSanL-Regu-32" transform="scale(0.996264)"/>
     <use xlink:href="#NimbusSanL-Regu-35" transform="translate(55.391677 0)scale(0.996264)"/>
     <use xlink:href="#NimbusSanL-Regu-2e" transform="translate(110.783354 0)scale(0.996264)"/>
     <use xlink:href="#NimbusSanL-Regu-31" transform="translate(138.478524 0)scale(0.996264)"/>
    </g>
   </g>
   <g id="text_3">
    <!-- Rest of Gross -->
    <g transform="translate(242.87381 106.780935)scale(0.09 -0.09)">
     <defs>
      <path id="NimbusSanL-Regu-52" d="M 1190 2034 
L 2726 2034 
C 3258 2034 3494 1774 3494 1187 
L 3488 762 
C 3488 468 3539 181 3622 -14 
L 4346 -14 
L 4346 136 
C 4122 292 4077 462 4064 1093 
C 4058 1873 3936 2108 3430 2329 
C 3955 2583 4166 2906 4166 3434 
C 4166 4233 3661 4672 2746 4672 
L 595 4672 
L 595 -14 
L 1190 -14 
L 1190 2034 
z
M 1190 2560 
L 1190 4146 
L 2630 4146 
C 2963 4146 3155 4096 3302 3969 
C 3462 3836 3546 3628 3546 3350 
C 3546 2806 3264 2560 2630 2560 
L 1190 2560 
z
" transform="scale(0.015625)"/>
      <path id="NimbusSanL-Regu-66" d="M 1651 3328 
L 1094 3328 
L 1094 3856 
C 1094 4082 1222 4198 1466 4198 
C 1510 4198 1530 4198 1651 4198 
L 1651 4640 
C 1530 4666 1459 4672 1350 4672 
C 858 4672 563 4388 563 3903 
L 563 3328 
L 115 3328 
L 115 2892 
L 563 2892 
L 563 -26 
L 1094 -26 
L 1094 2892 
L 1651 2892 
L 1651 3328 
z
" transform="scale(0.015625)"/>
     </defs>
     <use xlink:href="#NimbusSanL-Regu-52" transform="scale(0.996264)"/>
     <use xlink:href="#NimbusSanL-Regu-65" transform="translate(71.929985 0)scale(0.996264)"/>
     <use xlink:href="#NimbusSanL-Regu-73" transform="translate(127.321662 0)scale(0.996264)"/>
     <use xlink:href="#NimbusSanL-Regu-74" transform="translate(177.134862 0)scale(0.996264)"/>
     <use xlink:href="#NimbusSanL-Regu-6f" transform="translate(232.525202 0)scale(0.996264)"/>
     <use xlink:href="#NimbusSanL-Regu-66" transform="translate(287.916878 0)scale(0.996264)"/>
     <use xlink:href="#NimbusSanL-Regu-47" transform="translate(343.307218 0)scale(0.996264)"/>
     <use xlink:href="#NimbusSanL-Regu-72" transform="translate(420.815588 0)scale(0.996264)"/>
     <use xlink:href="#NimbusSanL-Regu-6f" transform="translate(453.990818 0)scale(0.996264)"/>
     <use xlink:href="#NimbusSanL-Regu-73" transform="translate(509.382494 0)scale(0.996264)"/>
     <use xlink:href="#NimbusSanL-Regu-73" transform="translate(559.195695 0)scale(0.996264)"/>
    </g>
    <!-- Capital Formation -->
    <g transform="translate(242.87381 116.556019)scale(0.09 -0.09)">
     <use xlink:href="#NimbusSanL-Regu-43" transform="scale(0.996264)"/>
     <use xlink:href="#NimbusSanL-Regu-61" transform="translate(71.929985 0)scale(0.996264)"/>
     <use xlink:href="#NimbusSanL-Regu-70" transform="translate(127.321662 0)scale(0.996264)"/>
     <use xlink:href="#NimbusSanL-Regu-69" transform="translate(182.713339 0)scale(0.996264)"/>
     <use xlink:href="#NimbusSanL-Regu-74" transform="translate(204.830123 0)scale(0.996264)"/>
     <use xlink:href="#NimbusSanL-Regu-61" transform="translate(232.525293 0)scale(0.996264)"/>
     <use xlink:href="#NimbusSanL-Regu-6c" transform="translate(287.91697 0)scale(0.996264)"/>
     <use xlink:href="#NimbusSanL-Regu-46" transform="translate(337.728924 0)scale(0.996264)"/>
     <use xlink:href="#NimbusSanL-Regu-6f" transform="translate(395.612446 0)scale(0.996264)"/>
     <use xlink:href="#NimbusSanL-Regu-72" transform="translate(451.004123 0)scale(0.996264)"/>
     <use xlink:href="#NimbusSanL-Regu-6d" transform="translate(486.669967 0)scale(0.996264)"/>
     <use xlink:href="#NimbusSanL-Regu-61" transform="translate(569.658398 0)scale(0.996264)"/>
     <use xlink:href="#NimbusSanL-Regu-74" transform="translate(625.050075 0)scale(0.996264)"/>
     <use xlink:href="#NimbusSanL-Regu-69" transform="translate(652.745244 0)scale(0.996264)"/>
     <use xlink:href="#NimbusSanL-Regu-6f" transform="translate(674.862029 0)scale(0.996264)"/>
     <use xlink:href="#NimbusSanL-Regu-6e" transform="translate(730.253706 0)scale(0.996264)"/>
    </g>
   </g>
   <g id="text_4">
    <!-- 1.7% -->
    <g transform="translate(207.171162 144.768875)scale(0.09 -0.09)">
     <defs>
      <path id="NimbusSanL-Regu-37" d="M 3328 4525 
L 294 4525 
L 294 3968 
L 2746 3968 
C 1664 2418 1222 1466 883 -32 
L 1485 -32 
C 1734 1427 2304 2681 3328 4051 
L 3328 4525 
z
" transform="scale(0.015625)"/>
     </defs>
     <use xlink:href="#NimbusSanL-Regu-31" transform="scale(0.996264)"/>
     <use xlink:href="#NimbusSanL-Regu-2e" transform="translate(55.391677 0)scale(0.996264)"/>
     <use xlink:href="#NimbusSanL-Regu-37" transform="translate(83.086847 0)scale(0.996264)"/>
    </g>
   </g>
   <g id="text_5">
    <!-- Final consumption -->
    <g transform="translate(7.930136 185.05675)scale(0.09 -0.09)">
     <defs>
      <path id="NimbusSanL-Regu-63" d="M 3014 2236 
C 2989 2562 2918 2773 2790 2958 
C 2560 3271 2157 3456 1690 3456 
C 787 3456 198 2742 198 1632 
C 198 554 774 -128 1683 -128 
C 2483 -128 2989 350 3053 1167 
L 2515 1167 
C 2426 632 2150 365 1696 365 
C 1107 365 755 843 755 1632 
C 755 2466 1101 2962 1683 2962 
C 2131 2962 2413 2701 2477 2236 
L 3014 2236 
z
" transform="scale(0.015625)"/>
      <path id="NimbusSanL-Regu-75" d="M 3085 33 
L 3085 3392 
L 2554 3392 
L 2554 1479 
C 2554 790 2195 340 1638 340 
C 1216 340 947 597 947 1003 
L 947 3392 
L 416 3392 
L 416 792 
C 416 232 832 -128 1485 -128 
C 1978 -128 2291 45 2605 488 
L 2605 33 
L 3085 33 
z
" transform="scale(0.015625)"/>
     </defs>
     <use xlink:href="#NimbusSanL-Regu-46" transform="scale(0.996264)"/>
     <use xlink:href="#NimbusSanL-Regu-69" transform="translate(60.871631 0)scale(0.996264)"/>
     <use xlink:href="#NimbusSanL-Regu-6e" transform="translate(82.988415 0)scale(0.996264)"/>
     <use xlink:href="#NimbusSanL-Regu-61" transform="translate(138.380092 0)scale(0.996264)"/>
     <use xlink:href="#NimbusSanL-Regu-6c" transform="translate(193.771769 0)scale(0.996264)"/>
     <use xlink:href="#NimbusSanL-Regu-63" transform="translate(243.583723 0)scale(0.996264)"/>
     <use xlink:href="#NimbusSanL-Regu-6f" transform="translate(293.396923 0)scale(0.996264)"/>
     <use xlink:href="#NimbusSanL-Regu-6e" transform="translate(348.7886 0)scale(0.996264)"/>
     <use xlink:href="#NimbusSanL-Regu-73" transform="translate(404.180277 0)scale(0.996264)"/>
     <use xlink:href="#NimbusSanL-Regu-75" transform="translate(453.993478 0)scale(0.996264)"/>
     <use xlink:href="#NimbusSanL-Regu-6d" transform="translate(509.385155 0)scale(0.996264)"/>
     <use xlink:href="#NimbusSanL-Regu-70" transform="translate(592.373585 0)scale(0.996264)"/>
     <use xlink:href="#NimbusSanL-Regu-74" transform="translate(647.765262 0)scale(0.996264)"/>
     <use xlink:href="#NimbusSanL-Regu-69" transform="translate(675.460432 0)scale(0.996264)"/>
     <use xlink:href="#NimbusSanL-Regu-6f" transform="translate(697.577216 0)scale(0.996264)"/>
     <use xlink:href="#NimbusSanL-Regu-6e" transform="translate(752.968893 0)scale(0.996264)"/>
    </g>
    <!-- expenditure -->
    <g transform="translate(34.102695 194.632721)scale(0.09 -0.09)">
     <use xlink:href="#NimbusSanL-Regu-65" transform="scale(0.996264)"/>
     <use xlink:href="#NimbusSanL-Regu-78" transform="translate(52.403569 0)scale(0.996264)"/>
     <use xlink:href="#NimbusSanL-Regu-70" transform="translate(102.21677 0)scale(0.996264)"/>
     <use xlink:href="#NimbusSanL-Regu-65" transform="translate(157.608446 0)scale(0.996264)"/>
     <use xlink:href="#NimbusSanL-Regu-6e" transform="translate(213.000123 0)scale(0.996264)"/>
     <use xlink:href="#NimbusSanL-Regu-64" transform="translate(268.3918 0)scale(0.996264)"/>
     <use xlink:href="#NimbusSanL-Regu-69" transform="translate(323.783477 0)scale(0.996264)"/>
     <use xlink:href="#NimbusSanL-Regu-74" transform="translate(345.900262 0)scale(0.996264)"/>
     <use xlink:href="#NimbusSanL-Regu-75" transform="translate(373.595431 0)scale(0.996264)"/>
     <use xlink:href="#NimbusSanL-Regu-72" transform="translate(428.987108 0)scale(0.996264)"/>
     <use xlink:href="#NimbusSanL-Regu-65" transform="translate(462.162338 0)scale(0.996264)"/>
    </g>
   </g>
   <g id="text_6">
    <!-- 73.2% -->
    <g transform="translate(116.210541 187.41047)scale(0.09 -0.09)">
     <defs>
      <path id="NimbusSanL-Regu-33" d="M 1414 2112 
L 1485 2112 
L 1722 2112 
C 2342 2112 2662 1830 2662 1284 
C 2662 712 2310 372 1722 372 
C 1107 372 806 681 768 1345 
L 205 1345 
C 230 978 294 740 403 534 
C 634 97 1082 -128 1702 -128 
C 2637 -128 3238 431 3238 1293 
C 3238 1872 3014 2194 2470 2381 
C 2893 2546 3104 2862 3104 3311 
C 3104 4082 2586 4544 1722 4544 
C 806 4544 320 4050 301 3095 
L 864 3095 
C 870 3366 896 3517 966 3655 
C 1094 3900 1376 4051 1728 4051 
C 2227 4051 2528 3760 2528 3287 
C 2528 2971 2413 2781 2163 2681 
C 2010 2618 1811 2592 1414 2592 
L 1414 2112 
z
" transform="scale(0.015625)"/>
     </defs>
     <use xlink:href="#NimbusSanL-Regu-37" transform="scale(0.996264)"/>
     <use xlink:href="#NimbusSanL-Regu-33" transform="translate(55.391677 0)scale(0.996264)"/>
     <use xlink:href="#NimbusSanL-Regu-2e" transform="translate(110.783354 0)scale(0.996264)"/>
     <use xlink:href="#NimbusSanL-Regu-32" transform="translate(138.478524 0)scale(0.996264)"/>
    </g>
   </g>
   <g id="text_7">
    <!-- Gross Domestic Product -->
    <g transform="translate(119.742185 65.452224)scale(0.108 -0.108)">
     <defs>
      <path id="NimbusSanL-Regu-44" d="M 570 0 
L 2368 0 
C 3546 0 4269 885 4269 2339 
C 4269 3787 3552 4672 2368 4672 
L 570 4672 
L 570 0 
z
M 1165 526 
L 1165 4146 
L 2266 4146 
C 3187 4146 3674 3524 3674 2333 
C 3674 1154 3187 526 2266 526 
L 1165 526 
z
" transform="scale(0.015625)"/>
      <path id="NimbusSanL-Regu-50" d="M 1178 1984 
L 2643 1984 
C 3008 1984 3296 2093 3546 2316 
C 3827 2573 3949 2873 3949 3303 
C 3949 4179 3430 4672 2509 4672 
L 582 4672 
L 582 -14 
L 1178 -14 
L 1178 1984 
z
M 1178 2510 
L 1178 4146 
L 2419 4146 
C 2989 4146 3328 3839 3328 3327 
C 3328 2816 2989 2510 2419 2510 
L 1178 2510 
z
" transform="scale(0.015625)"/>
     </defs>
     <use xlink:href="#NimbusSanL-Regu-47" transform="scale(0.996264)"/>
     <use xlink:href="#NimbusSanL-Regu-72" transform="translate(77.50837 0)scale(0.996264)"/>
     <use xlink:href="#NimbusSanL-Regu-6f" transform="translate(110.6836 0)scale(0.996264)"/>
     <use xlink:href="#NimbusSanL-Regu-73" transform="translate(166.075277 0)scale(0.996264)"/>
     <use xlink:href="#NimbusSanL-Regu-73" transform="translate(215.888477 0)scale(0.996264)"/>
     <use xlink:href="#NimbusSanL-Regu-44" transform="translate(293.396847 0)scale(0.996264)"/>
     <use xlink:href="#NimbusSanL-Regu-6f" transform="translate(365.326832 0)scale(0.996264)"/>
     <use xlink:href="#NimbusSanL-Regu-6d" transform="translate(420.718509 0)scale(0.996264)"/>
     <use xlink:href="#NimbusSanL-Regu-65" transform="translate(503.706939 0)scale(0.996264)"/>
     <use xlink:href="#NimbusSanL-Regu-73" transform="translate(559.098616 0)scale(0.996264)"/>
     <use xlink:href="#NimbusSanL-Regu-74" transform="translate(608.911817 0)scale(0.996264)"/>
     <use xlink:href="#NimbusSanL-Regu-69" transform="translate(636.606986 0)scale(0.996264)"/>
     <use xlink:href="#NimbusSanL-Regu-63" transform="translate(658.723771 0)scale(0.996264)"/>
     <use xlink:href="#NimbusSanL-Regu-50" transform="translate(736.232141 0)scale(0.996264)"/>
     <use xlink:href="#NimbusSanL-Regu-72" transform="translate(802.682172 0)scale(0.996264)"/>
     <use xlink:href="#NimbusSanL-Regu-6f" transform="translate(835.857402 0)scale(0.996264)"/>
     <use xlink:href="#NimbusSanL-Regu-64" transform="translate(891.249079 0)scale(0.996264)"/>
     <use xlink:href="#NimbusSanL-Regu-75" transform="translate(946.640756 0)scale(0.996264)"/>
     <use xlink:href="#NimbusSanL-Regu-63" transform="translate(1002.032433 0)scale(0.996264)"/>
     <use xlink:href="#NimbusSanL-Regu-74" transform="translate(1051.845633 0)scale(0.996264)"/>
    </g>
   </g>
  </g>
  <g id="axes_2">
   <g id="matplotlib.axis_3"/>
   <g id="matplotlib.axis_4"/>
   <g id="patch_5">
    <path d="M 498.994449 148.299592 
C 492.438613 153.800591 487.614378 161.0845 485.107375 169.267098 
C 482.600372 177.449696 482.516324 186.185914 484.865435 194.415231 
C 487.214545 202.644547 491.897749 210.019924 498.346534 215.646035 
C 504.79532 221.272147 512.737736 224.911735 521.209623 226.122976 
L 527.482224 182.25 
L 498.994449 148.299592 
z
" style="fill: #8c8c8c"/>
   </g>
   <g id="patch_6">
    <path d="M 521.209623 226.122976 
C 528.525749 227.168976 535.988627 226.368528 542.916505 223.794753 
C 549.844384 221.220979 556.019677 216.954713 560.878258 211.385691 
C 565.736838 205.816669 569.126111 199.119796 570.736458 191.90685 
C 572.346806 184.693904 572.127651 177.191422 570.099014 170.084773 
C 568.070377 162.978125 564.295973 156.490511 559.120601 151.21459 
C 553.945229 145.93867 547.531434 142.040144 540.465132 139.875153 
C 533.39883 137.710162 525.901953 137.346703 518.659359 138.817977 
C 511.416765 140.289252 504.655924 143.549052 498.994455 148.299586 
L 527.482224 182.25 
L 521.209623 226.122976 
z
" style="fill: #ccb974"/>
   </g>
   <g id="patch_7">
    <path d="M 518.618402 137.930889 
Q 384.004481 128.658739 249.390561 119.386588 
" style="fill: none; stroke: #000000; stroke-linecap: round"/>
   </g>
   <g id="patch_8">
    <path d="M 518.618402 226.569111 
Q 384.004482 235.84126 249.390563 245.113409 
" style="fill: none; stroke: #000000; stroke-linecap: round"/>
   </g>
   <g id="text_8">
    <!-- Net Value -->
    <g transform="translate(448.330736 193.508743)scale(0.07497 -0.07497)">
     <defs>
      <path id="NimbusSanL-Regu-4e" d="M 4134 4672 
L 3571 4672 
L 3571 851 
L 1133 4672 
L 486 4672 
L 486 -2 
L 1050 -2 
L 1050 3787 
L 3462 -2 
L 4134 -2 
L 4134 4672 
z
" transform="scale(0.015625)"/>
      <path id="NimbusSanL-Regu-56" d="M 2509 0 
L 4128 4672 
L 3494 4672 
L 2202 718 
L 832 4672 
L 192 4672 
L 1869 0 
L 2509 0 
z
" transform="scale(0.015625)"/>
     </defs>
     <use xlink:href="#NimbusSanL-Regu-4e" transform="scale(0.996264)"/>
     <use xlink:href="#NimbusSanL-Regu-65" transform="translate(71.929985 0)scale(0.996264)"/>
     <use xlink:href="#NimbusSanL-Regu-74" transform="translate(127.321662 0)scale(0.996264)"/>
     <use xlink:href="#NimbusSanL-Regu-56" transform="translate(182.712001 0)scale(0.996264)"/>
     <use xlink:href="#NimbusSanL-Regu-61" transform="translate(242.188686 0)scale(0.996264)"/>
     <use xlink:href="#NimbusSanL-Regu-6c" transform="translate(297.580363 0)scale(0.996264)"/>
     <use xlink:href="#NimbusSanL-Regu-75" transform="translate(319.697147 0)scale(0.996264)"/>
     <use xlink:href="#NimbusSanL-Regu-65" transform="translate(375.088824 0)scale(0.996264)"/>
    </g>
    <!-- Added -->
    <g transform="translate(459.011205 201.48551)scale(0.07497 -0.07497)">
     <defs>
      <path id="NimbusSanL-Regu-41" d="M 3034 1408 
L 3514 0 
L 4179 0 
L 2541 4672 
L 1773 4672 
L 109 0 
L 742 0 
L 1235 1408 
L 3034 1408 
z
M 2867 1908 
L 1382 1908 
L 2150 4032 
L 2867 1908 
z
" transform="scale(0.015625)"/>
     </defs>
     <use xlink:href="#NimbusSanL-Regu-41" transform="scale(0.996264)"/>
     <use xlink:href="#NimbusSanL-Regu-64" transform="translate(66.450031 0)scale(0.996264)"/>
     <use xlink:href="#NimbusSanL-Regu-64" transform="translate(121.841708 0)scale(0.996264)"/>
     <use xlink:href="#NimbusSanL-Regu-65" transform="translate(177.233385 0)scale(0.996264)"/>
     <use xlink:href="#NimbusSanL-Regu-64" transform="translate(232.625062 0)scale(0.996264)"/>
    </g>
   </g>
   <g id="text_9">
    <!-- 36.6% -->
    <g transform="translate(494.644946 191.414511)scale(0.07497 -0.07497)">
     <defs>
      <path id="NimbusSanL-Regu-36" d="M 3187 3382 
C 3078 4111 2592 4544 1901 4544 
C 1402 4544 954 4302 685 3900 
C 403 3460 275 2904 275 2081 
C 275 1321 390 836 659 434 
C 902 69 1299 -128 1798 -128 
C 2662 -128 3283 518 3283 1415 
C 3283 2268 2707 2868 1894 2868 
C 1446 2868 1094 2695 851 2362 
C 858 3444 1216 4044 1862 4044 
C 2259 4044 2534 3803 2624 3382 
L 3187 3382 
z
M 1824 2368 
C 2368 2368 2707 1986 2707 1370 
C 2707 793 2323 372 1805 372 
C 1280 372 883 813 883 1402 
C 883 1973 1267 2368 1824 2368 
z
" transform="scale(0.015625)"/>
     </defs>
     <use xlink:href="#NimbusSanL-Regu-33" transform="scale(0.996264)"/>
     <use xlink:href="#NimbusSanL-Regu-36" transform="translate(55.391677 0)scale(0.996264)"/>
     <use xlink:href="#NimbusSanL-Regu-2e" transform="translate(110.783354 0)scale(0.996264)"/>
     <use xlink:href="#NimbusSanL-Regu-36" transform="translate(138.478524 0)scale(0.996264)"/>
    </g>
   </g>
   <g id="text_10">
    <!-- Consumption of -->
    <g transform="translate(574.360693 166.731417)scale(0.07497 -0.07497)">
     <use xlink:href="#NimbusSanL-Regu-43" transform="scale(0.996264)"/>
     <use xlink:href="#NimbusSanL-Regu-6f" transform="translate(71.929985 0)scale(0.996264)"/>
     <use xlink:href="#NimbusSanL-Regu-6e" transform="translate(127.321662 0)scale(0.996264)"/>
     <use xlink:href="#NimbusSanL-Regu-73" transform="translate(182.713339 0)scale(0.996264)"/>
     <use xlink:href="#NimbusSanL-Regu-75" transform="translate(232.526539 0)scale(0.996264)"/>
     <use xlink:href="#NimbusSanL-Regu-6d" transform="translate(287.918216 0)scale(0.996264)"/>
     <use xlink:href="#NimbusSanL-Regu-70" transform="translate(370.906646 0)scale(0.996264)"/>
     <use xlink:href="#NimbusSanL-Regu-74" transform="translate(426.298323 0)scale(0.996264)"/>
     <use xlink:href="#NimbusSanL-Regu-69" transform="translate(453.993493 0)scale(0.996264)"/>
     <use xlink:href="#NimbusSanL-Regu-6f" transform="translate(476.110277 0)scale(0.996264)"/>
     <use xlink:href="#NimbusSanL-Regu-6e" transform="translate(531.501954 0)scale(0.996264)"/>
     <use xlink:href="#NimbusSanL-Regu-6f" transform="translate(614.588801 0)scale(0.996264)"/>
     <use xlink:href="#NimbusSanL-Regu-66" transform="translate(669.980478 0)scale(0.996264)"/>
    </g>
    <!-- Fixed Capital -->
    <g transform="translate(574.360693 174.87406)scale(0.07497 -0.07497)">
     <use xlink:href="#NimbusSanL-Regu-46" transform="scale(0.996264)"/>
     <use xlink:href="#NimbusSanL-Regu-69" transform="translate(60.871631 0)scale(0.996264)"/>
     <use xlink:href="#NimbusSanL-Regu-78" transform="translate(82.988415 0)scale(0.996264)"/>
     <use xlink:href="#NimbusSanL-Regu-65" transform="translate(129.813508 0)scale(0.996264)"/>
     <use xlink:href="#NimbusSanL-Regu-64" transform="translate(185.205185 0)scale(0.996264)"/>
     <use xlink:href="#NimbusSanL-Regu-43" transform="translate(268.292031 0)scale(0.996264)"/>
     <use xlink:href="#NimbusSanL-Regu-61" transform="translate(340.222016 0)scale(0.996264)"/>
     <use xlink:href="#NimbusSanL-Regu-70" transform="translate(395.613693 0)scale(0.996264)"/>
     <use xlink:href="#NimbusSanL-Regu-69" transform="translate(451.00537 0)scale(0.996264)"/>
     <use xlink:href="#NimbusSanL-Regu-74" transform="translate(473.122154 0)scale(0.996264)"/>
     <use xlink:href="#NimbusSanL-Regu-61" transform="translate(500.817324 0)scale(0.996264)"/>
     <use xlink:href="#NimbusSanL-Regu-6c" transform="translate(556.209001 0)scale(0.996264)"/>
    </g>
   </g>
   <g id="text_11">
    <!-- 63.4% -->
    <g transform="translate(545.785093 176.816237)scale(0.07497 -0.07497)">
     <defs>
      <path id="NimbusSanL-Regu-34" d="M 2093 1088 
L 2093 0 
L 2656 0 
L 2656 1088 
L 3328 1088 
L 3328 1594 
L 2656 1594 
L 2656 4545 
L 2240 4545 
L 179 1684 
L 179 1088 
L 2093 1088 
z
M 2093 1594 
L 672 1594 
L 2093 3583 
L 2093 1594 
z
" transform="scale(0.015625)"/>
     </defs>
     <use xlink:href="#NimbusSanL-Regu-36" transform="scale(0.996264)"/>
     <use xlink:href="#NimbusSanL-Regu-33" transform="translate(55.391677 0)scale(0.996264)"/>
     <use xlink:href="#NimbusSanL-Regu-2e" transform="translate(110.783354 0)scale(0.996264)"/>
     <use xlink:href="#NimbusSanL-Regu-34" transform="translate(138.478524 0)scale(0.996264)"/>
    </g>
   </g>
   <g id="text_12">
    <!-- Gross Fixed Capital Formation -->
    <g transform="translate(454.726242 65.452224)scale(0.108 -0.108)">
     <use xlink:href="#NimbusSanL-Regu-47" transform="scale(0.996264)"/>
     <use xlink:href="#NimbusSanL-Regu-72" transform="translate(77.50837 0)scale(0.996264)"/>
     <use xlink:href="#NimbusSanL-Regu-6f" transform="translate(110.6836 0)scale(0.996264)"/>
     <use xlink:href="#NimbusSanL-Regu-73" transform="translate(166.075277 0)scale(0.996264)"/>
     <use xlink:href="#NimbusSanL-Regu-73" transform="translate(215.888477 0)scale(0.996264)"/>
     <use xlink:href="#NimbusSanL-Regu-46" transform="translate(293.396847 0)scale(0.996264)"/>
     <use xlink:href="#NimbusSanL-Regu-69" transform="translate(354.268478 0)scale(0.996264)"/>
     <use xlink:href="#NimbusSanL-Regu-78" transform="translate(376.385262 0)scale(0.996264)"/>
     <use xlink:href="#NimbusSanL-Regu-65" transform="translate(423.210355 0)scale(0.996264)"/>
     <use xlink:href="#NimbusSanL-Regu-64" transform="translate(478.602032 0)scale(0.996264)"/>
     <use xlink:href="#NimbusSanL-Regu-43" transform="translate(561.688878 0)scale(0.996264)"/>
     <use xlink:href="#NimbusSanL-Regu-61" transform="translate(633.618863 0)scale(0.996264)"/>
     <use xlink:href="#NimbusSanL-Regu-70" transform="translate(689.01054 0)scale(0.996264)"/>
     <use xlink:href="#NimbusSanL-Regu-69" transform="translate(744.402217 0)scale(0.996264)"/>
     <use xlink:href="#NimbusSanL-Regu-74" transform="translate(766.519002 0)scale(0.996264)"/>
     <use xlink:href="#NimbusSanL-Regu-61" transform="translate(794.214171 0)scale(0.996264)"/>
     <use xlink:href="#NimbusSanL-Regu-6c" transform="translate(849.605848 0)scale(0.996264)"/>
     <use xlink:href="#NimbusSanL-Regu-46" transform="translate(899.417802 0)scale(0.996264)"/>
     <use xlink:href="#NimbusSanL-Regu-6f" transform="translate(957.301325 0)scale(0.996264)"/>
     <use xlink:href="#NimbusSanL-Regu-72" transform="translate(1012.693002 0)scale(0.996264)"/>
     <use xlink:href="#NimbusSanL-Regu-6d" transform="translate(1048.358846 0)scale(0.996264)"/>
     <use xlink:href="#NimbusSanL-Regu-61" transform="translate(1131.347276 0)scale(0.996264)"/>
     <use xlink:href="#NimbusSanL-Regu-74" transform="translate(1186.738953 0)scale(0.996264)"/>
     <use xlink:href="#NimbusSanL-Regu-69" transform="translate(1214.434123 0)scale(0.996264)"/>
     <use xlink:href="#NimbusSanL-Regu-6f" transform="translate(1236.550907 0)scale(0.996264)"/>
     <use xlink:href="#NimbusSanL-Regu-6e" transform="translate(1291.942584 0)scale(0.996264)"/>
    </g>
   </g>
  </g>
 </g>
</svg>
