<?xml version="1.0" encoding="utf-8" standalone="no"?>
<!DOCTYPE svg PUBLIC "-//W3C//DTD SVG 1.1//EN"
  "http://www.w3.org/Graphics/SVG/1.1/DTD/svg11.dtd">
<svg xmlns:xlink="http://www.w3.org/1999/xlink" width="504pt" height="255.11811pt" viewBox="0 0 504 255.11811" xmlns="http://www.w3.org/2000/svg" version="1.1">
 <metadata>
  <rdf:RDF xmlns:dc="http://purl.org/dc/elements/1.1/" xmlns:cc="http://creativecommons.org/ns#" xmlns:rdf="http://www.w3.org/1999/02/22-rdf-syntax-ns#">
   <cc:Work>
    <dc:type rdf:resource="http://purl.org/dc/dcmitype/StillImage"/>
    <dc:date>2022-09-02T16:18:15.007064</dc:date>
    <dc:format>image/svg+xml</dc:format>
    <dc:creator>
     <cc:Agent>
      <dc:title>Matplotlib v3.5.0, https://matplotlib.org/</dc:title>
     </cc:Agent>
    </dc:creator>
   </cc:Work>
  </rdf:RDF>
 </metadata>
 <defs>
  <style type="text/css">*{stroke-linejoin: round; stroke-linecap: butt}</style>
 </defs>
 <g id="figure_1">
  <g id="patch_1">
   <path d="M 0 255.11811 
L 504 255.11811 
L 504 0 
L 0 0 
z
" style="fill: #ffffff"/>
  </g>
  <g id="axes_1">
   <g id="patch_2">
    <path d="M 40.45941 215.826326 
L 248.168826 215.826326 
L 248.168826 27.386183 
L 40.45941 27.386183 
z
" style="fill: #ffffff"/>
   </g>
   <g id="legend_1">
    <g id="patch_3">
     <path d="M 51.056301 212.926326 
L 244.108826 212.926326 
Q 245.268826 212.926326 245.268826 211.766326 
L 245.268826 179.355229 
Q 245.268826 178.195229 244.108826 178.195229 
L 51.056301 178.195229 
Q 49.896301 178.195229 49.896301 179.355229 
L 49.896301 211.766326 
Q 49.896301 212.926326 51.056301 212.926326 
L 51.056301 212.926326 
z
" style="fill: none; opacity: 0"/>
    </g>
    <g id="line2d_1">
     <defs>
      <path id="m3771055fc3" d="M 0 2 
C 0.530406 2 1.03916 1.789267 1.414214 1.414214 
C 1.789267 1.03916 2 0.530406 2 0 
C 2 -0.530406 1.789267 -1.03916 1.414214 -1.414214 
C 1.03916 -1.789267 0.530406 -2 0 -2 
C -0.530406 -2 -1.03916 -1.789267 -1.414214 -1.414214 
C -1.789267 -1.03916 -2 -0.530406 -2 0 
C -2 0.530406 -1.789267 1.03916 -1.414214 1.414214 
C -1.03916 1.789267 -0.530406 2 0 2 
z
" style="stroke: #0173b2"/>
     </defs>
     <g>
      <use xlink:href="#m3771055fc3" x="58.016301" y="182.602252" style="fill: #0173b2; stroke: #0173b2"/>
     </g>
    </g>
    <g id="text_1">
     <!-- Europe -->
     <g transform="translate(68.456301 184.632252)scale(0.058 -0.058)">
      <defs>
       <path id="NimbusSanL-Regu-45" d="M 1171 2112 
L 3712 2112 
L 3712 2638 
L 1171 2638 
L 1171 4146 
L 3808 4146 
L 3808 4672 
L 576 4672 
L 576 0 
L 3923 0 
L 3923 526 
L 1171 526 
L 1171 2112 
z
" transform="scale(0.015625)"/>
       <path id="NimbusSanL-Regu-75" d="M 3085 33 
L 3085 3392 
L 2554 3392 
L 2554 1479 
C 2554 790 2195 340 1638 340 
C 1216 340 947 597 947 1003 
L 947 3392 
L 416 3392 
L 416 792 
C 416 232 832 -128 1485 -128 
C 1978 -128 2291 45 2605 488 
L 2605 33 
L 3085 33 
z
" transform="scale(0.015625)"/>
       <path id="NimbusSanL-Regu-72" d="M 442 3359 
L 442 0 
L 979 0 
L 979 1741 
C 979 2221 1101 2535 1357 2720 
C 1523 2842 1683 2880 2054 2880 
L 2054 3432 
C 1965 3444 1920 3444 1850 3444 
C 1504 3444 1242 3240 934 2746 
L 934 3359 
L 442 3359 
z
" transform="scale(0.015625)"/>
       <path id="NimbusSanL-Regu-6f" d="M 1741 3456 
C 800 3456 230 2786 230 1663 
C 230 541 794 -128 1747 -128 
C 2688 -128 3264 541 3264 1638 
C 3264 2792 2707 3456 1741 3456 
z
M 1747 2962 
C 2349 2962 2707 2472 2707 1645 
C 2707 861 2336 365 1747 365 
C 1152 365 787 855 787 1663 
C 787 2466 1152 2962 1747 2962 
z
" transform="scale(0.015625)"/>
       <path id="NimbusSanL-Regu-70" d="M 346 -1408 
L 883 -1408 
L 883 320 
C 1165 -27 1478 -180 1914 -180 
C 2778 -180 3347 522 3347 1599 
C 3347 2734 2797 3444 1907 3444 
C 1453 3444 1088 3238 838 2841 
L 838 3349 
L 346 3349 
L 346 -1408 
z
M 1818 2944 
C 2406 2944 2790 2420 2790 1612 
C 2790 843 2400 320 1818 320 
C 1254 320 883 837 883 1632 
C 883 2427 1254 2944 1818 2944 
z
" transform="scale(0.015625)"/>
       <path id="NimbusSanL-Regu-65" d="M 3283 1529 
C 3283 2034 3245 2338 3149 2584 
C 2931 3127 2419 3456 1792 3456 
C 858 3456 256 2742 256 1645 
C 256 547 838 -128 1779 -128 
C 2547 -128 3078 310 3213 1044 
L 2675 1044 
C 2528 598 2227 365 1798 365 
C 1459 365 1171 520 992 805 
C 864 998 819 1193 813 1529 
L 3283 1529 
z
M 826 1984 
C 870 2577 1248 2962 1786 2962 
C 2310 2962 2714 2530 2714 1984 
C 2714 1984 2714 1984 2707 1984 
L 826 1984 
z
" transform="scale(0.015625)"/>
      </defs>
      <use xlink:href="#NimbusSanL-Regu-45" transform="scale(0.996264)"/>
      <use xlink:href="#NimbusSanL-Regu-75" transform="translate(66.450031 0)scale(0.996264)"/>
      <use xlink:href="#NimbusSanL-Regu-72" transform="translate(121.841708 0)scale(0.996264)"/>
      <use xlink:href="#NimbusSanL-Regu-6f" transform="translate(155.016938 0)scale(0.996264)"/>
      <use xlink:href="#NimbusSanL-Regu-70" transform="translate(210.408615 0)scale(0.996264)"/>
      <use xlink:href="#NimbusSanL-Regu-65" transform="translate(265.800292 0)scale(0.996264)"/>
     </g>
    </g>
    <g id="line2d_2">
     <defs>
      <path id="mbb4c2dbbf2" d="M 0 2 
C 0.530406 2 1.03916 1.789267 1.414214 1.414214 
C 1.789267 1.03916 2 0.530406 2 0 
C 2 -0.530406 1.789267 -1.03916 1.414214 -1.414214 
C 1.03916 -1.789267 0.530406 -2 0 -2 
C -0.530406 -2 -1.03916 -1.789267 -1.414214 -1.414214 
C -1.789267 -1.03916 -2 -0.530406 -2 0 
C -2 0.530406 -1.789267 1.03916 -1.414214 1.414214 
C -1.03916 1.789267 -0.530406 2 0 2 
z
" style="stroke: #de8f05"/>
     </defs>
     <g>
      <use xlink:href="#mbb4c2dbbf2" x="58.016301" y="190.850026" style="fill: #de8f05; stroke: #de8f05"/>
     </g>
    </g>
    <g id="text_2">
     <!-- Australia -->
     <g transform="translate(68.456301 192.880026)scale(0.058 -0.058)">
      <defs>
       <path id="NimbusSanL-Regu-41" d="M 3034 1408 
L 3514 0 
L 4179 0 
L 2541 4672 
L 1773 4672 
L 109 0 
L 742 0 
L 1235 1408 
L 3034 1408 
z
M 2867 1908 
L 1382 1908 
L 2150 4032 
L 2867 1908 
z
" transform="scale(0.015625)"/>
       <path id="NimbusSanL-Regu-73" d="M 2803 2427 
C 2797 3085 2362 3456 1587 3456 
C 806 3456 301 3054 301 2436 
C 301 1913 570 1665 1363 1474 
L 1862 1353 
C 2234 1263 2381 1130 2381 888 
C 2381 576 2067 365 1600 365 
C 1312 365 1069 448 934 588 
C 851 684 813 779 781 1014 
L 218 1014 
C 243 241 678 -128 1555 -128 
C 2400 -128 2938 285 2938 929 
C 2938 1426 2656 1701 1990 1860 
L 1478 1981 
C 1043 2082 858 2223 858 2458 
C 858 2764 1133 2962 1568 2962 
C 1997 2962 2227 2777 2240 2427 
L 2803 2427 
z
" transform="scale(0.015625)"/>
       <path id="NimbusSanL-Regu-74" d="M 1626 3380 
L 1075 3380 
L 1075 4288 
L 544 4288 
L 544 3380 
L 90 3380 
L 90 2944 
L 544 2944 
L 544 404 
C 544 64 774 -128 1190 -128 
C 1318 -128 1446 -116 1626 -83 
L 1626 366 
C 1555 346 1472 340 1370 340 
C 1139 340 1075 404 1075 641 
L 1075 2944 
L 1626 2944 
L 1626 3380 
z
" transform="scale(0.015625)"/>
       <path id="NimbusSanL-Regu-61" d="M 3424 333 
C 3366 320 3341 320 3309 320 
C 3123 320 3021 415 3021 581 
L 3021 2545 
C 3021 3137 2586 3456 1760 3456 
C 1274 3456 870 3316 646 3066 
C 493 2893 429 2702 416 2370 
L 954 2370 
C 998 2777 1242 2962 1741 2962 
C 2221 2962 2490 2783 2490 2465 
L 2490 2325 
C 2490 2101 2355 2006 1933 1955 
C 1178 1860 1062 1834 858 1751 
C 467 1592 269 1292 269 859 
C 269 254 691 -128 1370 -128 
C 1792 -128 2131 19 2509 365 
C 2547 25 2714 -128 3059 -128 
C 3168 -128 3251 -116 3424 -70 
L 3424 333 
z
M 2490 1072 
C 2490 893 2438 785 2278 639 
C 2061 441 1798 340 1485 340 
C 1069 340 826 537 826 874 
C 826 1225 1062 1403 1632 1486 
C 2195 1562 2310 1588 2490 1670 
L 2490 1072 
z
" transform="scale(0.015625)"/>
       <path id="NimbusSanL-Regu-6c" d="M 973 4672 
L 435 4672 
L 435 -2 
L 973 -2 
L 973 4672 
z
" transform="scale(0.015625)"/>
       <path id="NimbusSanL-Regu-69" d="M 960 3359 
L 429 3359 
L 429 0 
L 960 0 
L 960 3359 
z
M 960 4672 
L 422 4672 
L 422 3999 
L 960 3999 
L 960 4672 
z
" transform="scale(0.015625)"/>
      </defs>
      <use xlink:href="#NimbusSanL-Regu-41" transform="scale(0.996264)"/>
      <use xlink:href="#NimbusSanL-Regu-75" transform="translate(63.461923 0)scale(0.996264)"/>
      <use xlink:href="#NimbusSanL-Regu-73" transform="translate(118.8536 0)scale(0.996264)"/>
      <use xlink:href="#NimbusSanL-Regu-74" transform="translate(168.666801 0)scale(0.996264)"/>
      <use xlink:href="#NimbusSanL-Regu-72" transform="translate(196.36197 0)scale(0.996264)"/>
      <use xlink:href="#NimbusSanL-Regu-61" transform="translate(228.541103 0)scale(0.996264)"/>
      <use xlink:href="#NimbusSanL-Regu-6c" transform="translate(283.93278 0)scale(0.996264)"/>
      <use xlink:href="#NimbusSanL-Regu-69" transform="translate(306.049564 0)scale(0.996264)"/>
      <use xlink:href="#NimbusSanL-Regu-61" transform="translate(328.166349 0)scale(0.996264)"/>
     </g>
    </g>
    <g id="line2d_3">
     <defs>
      <path id="m29cdc1789a" d="M 0 2 
C 0.530406 2 1.03916 1.789267 1.414214 1.414214 
C 1.789267 1.03916 2 0.530406 2 0 
C 2 -0.530406 1.789267 -1.03916 1.414214 -1.414214 
C 1.03916 -1.789267 0.530406 -2 0 -2 
C -0.530406 -2 -1.03916 -1.789267 -1.414214 -1.414214 
C -1.789267 -1.03916 -2 -0.530406 -2 0 
C -2 0.530406 -1.789267 1.03916 -1.414214 1.414214 
C -1.03916 1.789267 -0.530406 2 0 2 
z
" style="stroke: #029e73"/>
     </defs>
     <g>
      <use xlink:href="#m29cdc1789a" x="58.016301" y="199.0978" style="fill: #029e73; stroke: #029e73"/>
     </g>
    </g>
    <g id="text_3">
     <!-- Latin America -->
     <g transform="translate(68.456301 201.1278)scale(0.058 -0.058)">
      <defs>
       <path id="NimbusSanL-Regu-4c" d="M 1107 4672 
L 512 4672 
L 512 0 
L 3411 0 
L 3411 526 
L 1107 526 
L 1107 4672 
z
" transform="scale(0.015625)"/>
       <path id="NimbusSanL-Regu-6e" d="M 448 3359 
L 448 0 
L 986 0 
L 986 1853 
C 986 2539 1344 2988 1894 2988 
C 2317 2988 2586 2731 2586 2327 
L 2586 0 
L 3117 0 
L 3117 2539 
C 3117 3097 2701 3456 2054 3456 
C 1555 3456 1235 3263 941 2796 
L 941 3359 
L 448 3359 
z
" transform="scale(0.015625)"/>
       <path id="NimbusSanL-Regu-6d" d="M 448 3359 
L 448 0 
L 986 0 
L 986 2109 
C 986 2597 1338 2988 1773 2988 
C 2170 2988 2394 2744 2394 2314 
L 2394 0 
L 2931 0 
L 2931 2109 
C 2931 2597 3283 2988 3718 2988 
C 4109 2988 4339 2738 4339 2314 
L 4339 0 
L 4877 0 
L 4877 2520 
C 4877 3122 4531 3456 3904 3456 
C 3456 3456 3187 3321 2874 2943 
C 2675 3302 2406 3456 1971 3456 
C 1523 3456 1229 3289 941 2885 
L 941 3359 
L 448 3359 
z
" transform="scale(0.015625)"/>
       <path id="NimbusSanL-Regu-63" d="M 3014 2236 
C 2989 2562 2918 2773 2790 2958 
C 2560 3271 2157 3456 1690 3456 
C 787 3456 198 2742 198 1632 
C 198 554 774 -128 1683 -128 
C 2483 -128 2989 350 3053 1167 
L 2515 1167 
C 2426 632 2150 365 1696 365 
C 1107 365 755 843 755 1632 
C 755 2466 1101 2962 1683 2962 
C 2131 2962 2413 2701 2477 2236 
L 3014 2236 
z
" transform="scale(0.015625)"/>
      </defs>
      <use xlink:href="#NimbusSanL-Regu-4c" transform="scale(0.996264)"/>
      <use xlink:href="#NimbusSanL-Regu-61" transform="translate(55.391677 0)scale(0.996264)"/>
      <use xlink:href="#NimbusSanL-Regu-74" transform="translate(110.783354 0)scale(0.996264)"/>
      <use xlink:href="#NimbusSanL-Regu-69" transform="translate(138.478524 0)scale(0.996264)"/>
      <use xlink:href="#NimbusSanL-Regu-6e" transform="translate(160.595308 0)scale(0.996264)"/>
      <use xlink:href="#NimbusSanL-Regu-41" transform="translate(243.682154 0)scale(0.996264)"/>
      <use xlink:href="#NimbusSanL-Regu-6d" transform="translate(310.132186 0)scale(0.996264)"/>
      <use xlink:href="#NimbusSanL-Regu-65" transform="translate(393.120616 0)scale(0.996264)"/>
      <use xlink:href="#NimbusSanL-Regu-72" transform="translate(448.512293 0)scale(0.996264)"/>
      <use xlink:href="#NimbusSanL-Regu-69" transform="translate(483.1809 0)scale(0.996264)"/>
      <use xlink:href="#NimbusSanL-Regu-63" transform="translate(505.297684 0)scale(0.996264)"/>
      <use xlink:href="#NimbusSanL-Regu-61" transform="translate(555.110885 0)scale(0.996264)"/>
     </g>
    </g>
    <g id="line2d_4">
     <defs>
      <path id="ma937e3507d" d="M 0 2 
C 0.530406 2 1.03916 1.789267 1.414214 1.414214 
C 1.789267 1.03916 2 0.530406 2 0 
C 2 -0.530406 1.789267 -1.03916 1.414214 -1.414214 
C 1.03916 -1.789267 0.530406 -2 0 -2 
C -0.530406 -2 -1.03916 -1.789267 -1.414214 -1.414214 
C -1.789267 -1.03916 -2 -0.530406 -2 0 
C -2 0.530406 -1.789267 1.03916 -1.414214 1.414214 
C -1.03916 1.789267 -0.530406 2 0 2 
z
" style="stroke: #d55e00"/>
     </defs>
     <g>
      <use xlink:href="#ma937e3507d" x="58.016301" y="207.345575" style="fill: #d55e00; stroke: #d55e00"/>
     </g>
    </g>
    <g id="text_4">
     <!-- USA and Canada -->
     <g transform="translate(68.456301 209.375575)scale(0.058 -0.058)">
      <defs>
       <path id="NimbusSanL-Regu-55" d="M 3533 4672 
L 3533 1395 
C 3533 768 3078 384 2330 384 
C 1984 384 1702 468 1478 628 
C 1248 806 1139 1044 1139 1395 
L 1139 4672 
L 544 4672 
L 544 1394 
C 544 447 1222 -141 2330 -141 
C 3424 -141 4128 460 4128 1394 
L 4128 4672 
L 3533 4672 
z
" transform="scale(0.015625)"/>
       <path id="NimbusSanL-Regu-53" d="M 3814 3335 
C 3808 4255 3181 4788 2106 4788 
C 1082 4788 448 4260 448 3410 
C 448 2837 749 2477 1363 2316 
L 2522 2007 
C 3110 1852 3379 1614 3379 1247 
C 3379 995 3245 738 3046 597 
C 2861 468 2566 397 2189 397 
C 1683 397 1338 520 1114 790 
C 941 996 864 1222 870 1511 
L 307 1511 
C 314 1081 397 798 582 540 
C 902 103 1440 -128 2150 -128 
C 2707 -128 3162 1 3462 232 
C 3776 483 3974 901 3974 1307 
C 3974 1886 3616 2311 2982 2485 
L 1811 2801 
C 1248 2955 1043 3135 1043 3496 
C 1043 3972 1459 4288 2086 4288 
C 2829 4288 3245 3947 3251 3335 
L 3814 3335 
z
" transform="scale(0.015625)"/>
       <path id="NimbusSanL-Regu-64" d="M 3168 4672 
L 2637 4672 
L 2637 2937 
C 2413 3276 2054 3456 1606 3456 
C 736 3456 166 2761 166 1695 
C 166 566 723 -128 1626 -128 
C 2086 -128 2406 45 2694 461 
L 2694 -2 
L 3168 -2 
L 3168 4672 
z
M 1696 2956 
C 2272 2956 2637 2447 2637 1651 
C 2637 881 2266 372 1702 372 
C 1114 372 723 887 723 1664 
C 723 2440 1114 2956 1696 2956 
z
" transform="scale(0.015625)"/>
       <path id="NimbusSanL-Regu-43" d="M 4237 3229 
C 4051 4252 3462 4750 2438 4750 
C 1811 4750 1306 4552 960 4168 
C 538 3709 307 3045 307 2291 
C 307 1525 544 868 986 414 
C 1344 44 1805 -128 2413 -128 
C 3552 -128 4192 485 4333 1717 
L 3718 1717 
C 3667 1399 3603 1182 3507 997 
C 3315 614 2918 397 2419 397 
C 1491 397 902 1137 902 2298 
C 902 3491 1466 4224 2368 4224 
C 2746 4224 3098 4110 3290 3930 
C 3462 3771 3558 3573 3629 3229 
L 4237 3229 
z
" transform="scale(0.015625)"/>
      </defs>
      <use xlink:href="#NimbusSanL-Regu-55" transform="scale(0.996264)"/>
      <use xlink:href="#NimbusSanL-Regu-53" transform="translate(71.929985 0)scale(0.996264)"/>
      <use xlink:href="#NimbusSanL-Regu-41" transform="translate(138.380016 0)scale(0.996264)"/>
      <use xlink:href="#NimbusSanL-Regu-61" transform="translate(232.525217 0)scale(0.996264)"/>
      <use xlink:href="#NimbusSanL-Regu-6e" transform="translate(287.916894 0)scale(0.996264)"/>
      <use xlink:href="#NimbusSanL-Regu-64" transform="translate(343.308571 0)scale(0.996264)"/>
      <use xlink:href="#NimbusSanL-Regu-43" transform="translate(426.395417 0)scale(0.996264)"/>
      <use xlink:href="#NimbusSanL-Regu-61" transform="translate(498.325402 0)scale(0.996264)"/>
      <use xlink:href="#NimbusSanL-Regu-6e" transform="translate(553.717079 0)scale(0.996264)"/>
      <use xlink:href="#NimbusSanL-Regu-61" transform="translate(609.108756 0)scale(0.996264)"/>
      <use xlink:href="#NimbusSanL-Regu-64" transform="translate(664.500433 0)scale(0.996264)"/>
      <use xlink:href="#NimbusSanL-Regu-61" transform="translate(719.89211 0)scale(0.996264)"/>
     </g>
    </g>
    <g id="line2d_5">
     <defs>
      <path id="m1c207bd20f" d="M 0 2 
C 0.530406 2 1.03916 1.789267 1.414214 1.414214 
C 1.789267 1.03916 2 0.530406 2 0 
C 2 -0.530406 1.789267 -1.03916 1.414214 -1.414214 
C 1.03916 -1.789267 0.530406 -2 0 -2 
C -0.530406 -2 -1.03916 -1.789267 -1.414214 -1.414214 
C -1.789267 -1.03916 -2 -0.530406 -2 0 
C -2 0.530406 -1.789267 1.03916 -1.414214 1.414214 
C -1.03916 1.789267 -0.530406 2 0 2 
z
" style="stroke: #cc78bc"/>
     </defs>
     <g>
      <use xlink:href="#m1c207bd20f" x="130.822687" y="182.602252" style="fill: #cc78bc; stroke: #cc78bc"/>
     </g>
    </g>
    <g id="text_5">
     <!-- China -->
     <g transform="translate(141.262687 184.632252)scale(0.058 -0.058)">
      <defs>
       <path id="NimbusSanL-Regu-68" d="M 448 4672 
L 448 -2 
L 979 -2 
L 979 1852 
C 979 2539 1338 2988 1888 2988 
C 2061 2988 2234 2930 2362 2834 
C 2515 2725 2579 2564 2579 2327 
L 2579 -2 
L 3110 -2 
L 3110 2538 
C 3110 3103 2707 3456 2054 3456 
C 1581 3456 1293 3308 979 2898 
L 979 4672 
L 448 4672 
z
" transform="scale(0.015625)"/>
      </defs>
      <use xlink:href="#NimbusSanL-Regu-43" transform="scale(0.996264)"/>
      <use xlink:href="#NimbusSanL-Regu-68" transform="translate(71.929985 0)scale(0.996264)"/>
      <use xlink:href="#NimbusSanL-Regu-69" transform="translate(127.321662 0)scale(0.996264)"/>
      <use xlink:href="#NimbusSanL-Regu-6e" transform="translate(149.438446 0)scale(0.996264)"/>
      <use xlink:href="#NimbusSanL-Regu-61" transform="translate(204.830123 0)scale(0.996264)"/>
     </g>
    </g>
    <g id="line2d_6">
     <defs>
      <path id="m5975cf4e45" d="M 0 2 
C 0.530406 2 1.03916 1.789267 1.414214 1.414214 
C 1.789267 1.03916 2 0.530406 2 0 
C 2 -0.530406 1.789267 -1.03916 1.414214 -1.414214 
C 1.03916 -1.789267 0.530406 -2 0 -2 
C -0.530406 -2 -1.03916 -1.789267 -1.414214 -1.414214 
C -1.789267 -1.03916 -2 -0.530406 -2 0 
C -2 0.530406 -1.789267 1.03916 -1.414214 1.414214 
C -1.03916 1.789267 -0.530406 2 0 2 
z
" style="stroke: #ca9161"/>
     </defs>
     <g>
      <use xlink:href="#m5975cf4e45" x="130.822687" y="190.850026" style="fill: #ca9161; stroke: #ca9161"/>
     </g>
    </g>
    <g id="text_6">
     <!-- Rest of Asia -->
     <g transform="translate(141.262687 192.880026)scale(0.058 -0.058)">
      <defs>
       <path id="NimbusSanL-Regu-52" d="M 1190 2034 
L 2726 2034 
C 3258 2034 3494 1774 3494 1187 
L 3488 762 
C 3488 468 3539 181 3622 -14 
L 4346 -14 
L 4346 136 
C 4122 292 4077 462 4064 1093 
C 4058 1873 3936 2108 3430 2329 
C 3955 2583 4166 2906 4166 3434 
C 4166 4233 3661 4672 2746 4672 
L 595 4672 
L 595 -14 
L 1190 -14 
L 1190 2034 
z
M 1190 2560 
L 1190 4146 
L 2630 4146 
C 2963 4146 3155 4096 3302 3969 
C 3462 3836 3546 3628 3546 3350 
C 3546 2806 3264 2560 2630 2560 
L 1190 2560 
z
" transform="scale(0.015625)"/>
       <path id="NimbusSanL-Regu-66" d="M 1651 3328 
L 1094 3328 
L 1094 3856 
C 1094 4082 1222 4198 1466 4198 
C 1510 4198 1530 4198 1651 4198 
L 1651 4640 
C 1530 4666 1459 4672 1350 4672 
C 858 4672 563 4388 563 3903 
L 563 3328 
L 115 3328 
L 115 2892 
L 563 2892 
L 563 -26 
L 1094 -26 
L 1094 2892 
L 1651 2892 
L 1651 3328 
z
" transform="scale(0.015625)"/>
      </defs>
      <use xlink:href="#NimbusSanL-Regu-52" transform="scale(0.996264)"/>
      <use xlink:href="#NimbusSanL-Regu-65" transform="translate(71.929985 0)scale(0.996264)"/>
      <use xlink:href="#NimbusSanL-Regu-73" transform="translate(127.321662 0)scale(0.996264)"/>
      <use xlink:href="#NimbusSanL-Regu-74" transform="translate(177.134862 0)scale(0.996264)"/>
      <use xlink:href="#NimbusSanL-Regu-6f" transform="translate(232.525202 0)scale(0.996264)"/>
      <use xlink:href="#NimbusSanL-Regu-66" transform="translate(287.916878 0)scale(0.996264)"/>
      <use xlink:href="#NimbusSanL-Regu-41" transform="translate(343.307218 0)scale(0.996264)"/>
      <use xlink:href="#NimbusSanL-Regu-73" transform="translate(409.757249 0)scale(0.996264)"/>
      <use xlink:href="#NimbusSanL-Regu-69" transform="translate(459.570449 0)scale(0.996264)"/>
      <use xlink:href="#NimbusSanL-Regu-61" transform="translate(481.687234 0)scale(0.996264)"/>
     </g>
    </g>
    <g id="line2d_7">
     <defs>
      <path id="mbfcaf4b94b" d="M 0 2 
C 0.530406 2 1.03916 1.789267 1.414214 1.414214 
C 1.789267 1.03916 2 0.530406 2 0 
C 2 -0.530406 1.789267 -1.03916 1.414214 -1.414214 
C 1.03916 -1.789267 0.530406 -2 0 -2 
C -0.530406 -2 -1.03916 -1.789267 -1.414214 -1.414214 
C -1.789267 -1.03916 -2 -0.530406 -2 0 
C -2 0.530406 -1.789267 1.03916 -1.414214 1.414214 
C -1.03916 1.789267 -0.530406 2 0 2 
z
" style="stroke: #fbafe4"/>
     </defs>
     <g>
      <use xlink:href="#mbfcaf4b94b" x="130.822687" y="199.0978" style="fill: #fbafe4; stroke: #fbafe4"/>
     </g>
    </g>
    <g id="text_7">
     <!-- India -->
     <g transform="translate(141.262687 201.1278)scale(0.058 -0.058)">
      <defs>
       <path id="NimbusSanL-Regu-49" d="M 1242 4672 
L 640 4672 
L 640 -2 
L 1242 -2 
L 1242 4672 
z
" transform="scale(0.015625)"/>
      </defs>
      <use xlink:href="#NimbusSanL-Regu-49" transform="scale(0.996264)"/>
      <use xlink:href="#NimbusSanL-Regu-6e" transform="translate(27.69517 0)scale(0.996264)"/>
      <use xlink:href="#NimbusSanL-Regu-64" transform="translate(83.086847 0)scale(0.996264)"/>
      <use xlink:href="#NimbusSanL-Regu-69" transform="translate(138.478524 0)scale(0.996264)"/>
      <use xlink:href="#NimbusSanL-Regu-61" transform="translate(160.595308 0)scale(0.996264)"/>
     </g>
    </g>
    <g id="line2d_8">
     <defs>
      <path id="m695b8983a3" d="M 0 2 
C 0.530406 2 1.03916 1.789267 1.414214 1.414214 
C 1.789267 1.03916 2 0.530406 2 0 
C 2 -0.530406 1.789267 -1.03916 1.414214 -1.414214 
C 1.03916 -1.789267 0.530406 -2 0 -2 
C -0.530406 -2 -1.03916 -1.789267 -1.414214 -1.414214 
C -1.789267 -1.03916 -2 -0.530406 -2 0 
C -2 0.530406 -1.789267 1.03916 -1.414214 1.414214 
C -1.03916 1.789267 -0.530406 2 0 2 
z
" style="stroke: #949494"/>
     </defs>
     <g>
      <use xlink:href="#m695b8983a3" x="130.822687" y="207.345575" style="fill: #949494; stroke: #949494"/>
     </g>
    </g>
    <g id="text_8">
     <!-- Japan and Korea -->
     <g transform="translate(141.262687 209.375575)scale(0.058 -0.058)">
      <defs>
       <path id="NimbusSanL-Regu-4a" d="M 2131 4672 
L 2131 1399 
C 2131 1029 2093 818 1984 659 
C 1869 480 1651 372 1414 372 
C 966 372 717 671 717 1214 
L 717 1513 
L 109 1513 
L 109 1104 
C 109 350 608 -128 1408 -128 
C 2221 -128 2726 376 2726 1180 
L 2726 4672 
L 2131 4672 
z
" transform="scale(0.015625)"/>
       <path id="NimbusSanL-Regu-4b" d="M 1101 1633 
L 1862 2396 
L 3507 -2 
L 4211 -2 
L 2291 2768 
L 4192 4672 
L 3424 4672 
L 1101 2306 
L 1101 4672 
L 506 4672 
L 506 -2 
L 1101 -2 
L 1101 1633 
z
" transform="scale(0.015625)"/>
      </defs>
      <use xlink:href="#NimbusSanL-Regu-4a" transform="scale(0.996264)"/>
      <use xlink:href="#NimbusSanL-Regu-61" transform="translate(47.821189 0)scale(0.996264)"/>
      <use xlink:href="#NimbusSanL-Regu-70" transform="translate(103.212866 0)scale(0.996264)"/>
      <use xlink:href="#NimbusSanL-Regu-61" transform="translate(158.604543 0)scale(0.996264)"/>
      <use xlink:href="#NimbusSanL-Regu-6e" transform="translate(213.99622 0)scale(0.996264)"/>
      <use xlink:href="#NimbusSanL-Regu-61" transform="translate(297.083067 0)scale(0.996264)"/>
      <use xlink:href="#NimbusSanL-Regu-6e" transform="translate(352.474744 0)scale(0.996264)"/>
      <use xlink:href="#NimbusSanL-Regu-64" transform="translate(407.866421 0)scale(0.996264)"/>
      <use xlink:href="#NimbusSanL-Regu-4b" transform="translate(490.953267 0)scale(0.996264)"/>
      <use xlink:href="#NimbusSanL-Regu-6f" transform="translate(553.419185 0)scale(0.996264)"/>
      <use xlink:href="#NimbusSanL-Regu-72" transform="translate(608.810862 0)scale(0.996264)"/>
      <use xlink:href="#NimbusSanL-Regu-65" transform="translate(641.986092 0)scale(0.996264)"/>
      <use xlink:href="#NimbusSanL-Regu-61" transform="translate(697.377769 0)scale(0.996264)"/>
     </g>
    </g>
    <g id="line2d_9">
     <defs>
      <path id="md568de9b89" d="M 0 2 
C 0.530406 2 1.03916 1.789267 1.414214 1.414214 
C 1.789267 1.03916 2 0.530406 2 0 
C 2 -0.530406 1.789267 -1.03916 1.414214 -1.414214 
C 1.03916 -1.789267 0.530406 -2 0 -2 
C -0.530406 -2 -1.03916 -1.789267 -1.414214 -1.414214 
C -1.789267 -1.03916 -2 -0.530406 -2 0 
C -2 0.530406 -1.789267 1.03916 -1.414214 1.414214 
C -1.03916 1.789267 -0.530406 2 0 2 
z
" style="stroke: #ece133"/>
     </defs>
     <g>
      <use xlink:href="#md568de9b89" x="202.323225" y="182.602252" style="fill: #ece133; stroke: #ece133"/>
     </g>
    </g>
    <g id="text_9">
     <!-- Russia -->
     <g transform="translate(212.763225 184.632252)scale(0.058 -0.058)">
      <use xlink:href="#NimbusSanL-Regu-52" transform="scale(0.996264)"/>
      <use xlink:href="#NimbusSanL-Regu-75" transform="translate(71.929985 0)scale(0.996264)"/>
      <use xlink:href="#NimbusSanL-Regu-73" transform="translate(127.321662 0)scale(0.996264)"/>
      <use xlink:href="#NimbusSanL-Regu-73" transform="translate(177.134862 0)scale(0.996264)"/>
      <use xlink:href="#NimbusSanL-Regu-69" transform="translate(226.948063 0)scale(0.996264)"/>
      <use xlink:href="#NimbusSanL-Regu-61" transform="translate(249.064847 0)scale(0.996264)"/>
     </g>
    </g>
    <g id="line2d_10">
     <defs>
      <path id="m30cc884604" d="M 0 2 
C 0.530406 2 1.03916 1.789267 1.414214 1.414214 
C 1.789267 1.03916 2 0.530406 2 0 
C 2 -0.530406 1.789267 -1.03916 1.414214 -1.414214 
C 1.03916 -1.789267 0.530406 -2 0 -2 
C -0.530406 -2 -1.03916 -1.789267 -1.414214 -1.414214 
C -1.789267 -1.03916 -2 -0.530406 -2 0 
C -2 0.530406 -1.789267 1.03916 -1.414214 1.414214 
C -1.03916 1.789267 -0.530406 2 0 2 
z
" style="stroke: #56b4e9"/>
     </defs>
     <g>
      <use xlink:href="#m30cc884604" x="202.323225" y="190.850026" style="fill: #56b4e9; stroke: #56b4e9"/>
     </g>
    </g>
    <g id="text_10">
     <!-- Africa -->
     <g transform="translate(212.763225 192.880026)scale(0.058 -0.058)">
      <use xlink:href="#NimbusSanL-Regu-41" transform="scale(0.996264)"/>
      <use xlink:href="#NimbusSanL-Regu-66" transform="translate(66.450031 0)scale(0.996264)"/>
      <use xlink:href="#NimbusSanL-Regu-72" transform="translate(94.145201 0)scale(0.996264)"/>
      <use xlink:href="#NimbusSanL-Regu-69" transform="translate(128.813808 0)scale(0.996264)"/>
      <use xlink:href="#NimbusSanL-Regu-63" transform="translate(150.930592 0)scale(0.996264)"/>
      <use xlink:href="#NimbusSanL-Regu-61" transform="translate(200.743793 0)scale(0.996264)"/>
     </g>
    </g>
    <g id="line2d_11">
     <defs>
      <path id="md71c380b53" d="M 0 2 
C 0.530406 2 1.03916 1.789267 1.414214 1.414214 
C 1.789267 1.03916 2 0.530406 2 0 
C 2 -0.530406 1.789267 -1.03916 1.414214 -1.414214 
C 1.03916 -1.789267 0.530406 -2 0 -2 
C -0.530406 -2 -1.03916 -1.789267 -1.414214 -1.414214 
C -1.789267 -1.03916 -2 -0.530406 -2 0 
C -2 0.530406 -1.789267 1.03916 -1.414214 1.414214 
C -1.03916 1.789267 -0.530406 2 0 2 
z
" style="stroke: #808000"/>
     </defs>
     <g>
      <use xlink:href="#md71c380b53" x="202.323225" y="199.0978" style="fill: #808000; stroke: #808000"/>
     </g>
    </g>
    <g id="text_11">
     <!-- Middle East -->
     <g transform="translate(212.763225 201.1278)scale(0.058 -0.058)">
      <defs>
       <path id="NimbusSanL-Regu-4d" d="M 2995 -2 
L 4307 3915 
L 4307 -2 
L 4870 -2 
L 4870 4672 
L 4045 4672 
L 2688 601 
L 1306 4672 
L 480 4672 
L 480 -2 
L 1043 -2 
L 1043 3915 
L 2368 -2 
L 2995 -2 
z
" transform="scale(0.015625)"/>
      </defs>
      <use xlink:href="#NimbusSanL-Regu-4d" transform="scale(0.996264)"/>
      <use xlink:href="#NimbusSanL-Regu-69" transform="translate(82.98843 0)scale(0.996264)"/>
      <use xlink:href="#NimbusSanL-Regu-64" transform="translate(105.105215 0)scale(0.996264)"/>
      <use xlink:href="#NimbusSanL-Regu-64" transform="translate(160.496892 0)scale(0.996264)"/>
      <use xlink:href="#NimbusSanL-Regu-6c" transform="translate(215.888569 0)scale(0.996264)"/>
      <use xlink:href="#NimbusSanL-Regu-65" transform="translate(238.005353 0)scale(0.996264)"/>
      <use xlink:href="#NimbusSanL-Regu-45" transform="translate(321.092199 0)scale(0.996264)"/>
      <use xlink:href="#NimbusSanL-Regu-61" transform="translate(387.542231 0)scale(0.996264)"/>
      <use xlink:href="#NimbusSanL-Regu-73" transform="translate(442.933908 0)scale(0.996264)"/>
      <use xlink:href="#NimbusSanL-Regu-74" transform="translate(492.747108 0)scale(0.996264)"/>
     </g>
    </g>
   </g>
   <g id="matplotlib.axis_1">
    <g id="xtick_1">
     <g id="line2d_12">
      <defs>
       <path id="mbb0fdb5bd4" d="M 0 0 
L 0 5 
" style="stroke: #000000; stroke-width: 0.8"/>
      </defs>
      <g>
       <use xlink:href="#mbb0fdb5bd4" x="92.380974" y="215.826326" style="stroke: #000000; stroke-width: 0.8"/>
      </g>
     </g>
     <g id="text_12">
      <!-- $\mathdefault{9}$ -->
      <g transform="translate(90.077129 230.714814)scale(0.09 -0.09)">
       <defs>
        <path id="CMR17-39" d="M 2253 1864 
C 2253 464 1670 31 1190 31 
C 1043 31 685 31 538 294 
C 704 268 826 357 826 518 
C 826 692 685 749 595 749 
C 538 749 365 723 365 506 
C 365 71 742 -128 1203 -128 
C 1939 -128 2688 674 2688 2073 
C 2688 3817 1971 4179 1485 4179 
C 851 4179 243 3628 243 2778 
C 243 1991 762 1408 1414 1408 
C 1952 1408 2189 1903 2253 2112 
L 2253 1864 
z
M 1427 1510 
C 1254 1510 1011 1542 813 1922 
C 678 2169 678 2461 678 2771 
C 678 3146 678 3405 858 3684 
C 947 3817 1114 4032 1485 4032 
C 2240 4032 2240 2885 2240 2632 
C 2240 2182 2035 1510 1427 1510 
z
" transform="scale(0.015625)"/>
       </defs>
       <use xlink:href="#CMR17-39" transform="scale(0.996264)"/>
      </g>
     </g>
    </g>
    <g id="xtick_2">
     <g id="line2d_13">
      <g>
       <use xlink:href="#mbb0fdb5bd4" x="146.100923" y="215.826326" style="stroke: #000000; stroke-width: 0.8"/>
      </g>
     </g>
     <g id="text_13">
      <!-- $\mathdefault{10}$ -->
      <g transform="translate(141.493232 230.714814)scale(0.09 -0.09)">
       <defs>
        <path id="CMR17-31" d="M 1702 4058 
C 1702 4192 1696 4192 1606 4192 
C 1357 3916 979 3827 621 3827 
C 602 3827 570 3827 563 3808 
C 557 3795 557 3782 557 3648 
C 755 3648 1088 3686 1344 3839 
L 1344 461 
C 1344 236 1331 160 781 160 
L 589 160 
L 589 0 
C 896 0 1216 0 1523 0 
C 1830 0 2150 0 2458 0 
L 2458 160 
L 2266 160 
C 1715 160 1702 230 1702 458 
L 1702 4058 
z
" transform="scale(0.015625)"/>
        <path id="CMR17-30" d="M 2688 2025 
C 2688 2416 2682 3080 2413 3591 
C 2176 4039 1798 4198 1466 4198 
C 1158 4198 768 4058 525 3597 
C 269 3118 243 2524 243 2025 
C 243 1661 250 1106 448 619 
C 723 -39 1216 -128 1466 -128 
C 1760 -128 2208 -7 2470 600 
C 2662 1042 2688 1559 2688 2025 
z
M 1466 -26 
C 1056 -26 813 325 723 812 
C 653 1188 653 1738 653 2096 
C 653 2588 653 2997 736 3387 
C 858 3929 1216 4096 1466 4096 
C 1728 4096 2067 3923 2189 3400 
C 2272 3036 2278 2607 2278 2096 
C 2278 1680 2278 1169 2202 792 
C 2067 95 1690 -26 1466 -26 
z
" transform="scale(0.015625)"/>
       </defs>
       <use xlink:href="#CMR17-31" transform="scale(0.996264)"/>
       <use xlink:href="#CMR17-30" transform="translate(45.690477 0)scale(0.996264)"/>
      </g>
     </g>
    </g>
    <g id="xtick_3">
     <g id="line2d_14">
      <g>
       <use xlink:href="#mbb0fdb5bd4" x="199.820872" y="215.826326" style="stroke: #000000; stroke-width: 0.8"/>
      </g>
     </g>
     <g id="text_14">
      <!-- $\mathdefault{11}$ -->
      <g transform="translate(195.213181 230.714814)scale(0.09 -0.09)">
       <use xlink:href="#CMR17-31" transform="scale(0.996264)"/>
       <use xlink:href="#CMR17-31" transform="translate(45.690477 0)scale(0.996264)"/>
      </g>
     </g>
    </g>
    <g id="text_15">
     <!-- GDP per capita (log(US\$ppp)) -->
     <g transform="translate(84.271577 243.488326)scale(0.09 -0.09)">
      <defs>
       <path id="NimbusSanL-Regu-47" d="M 4538 2496 
L 2592 2496 
L 2592 1971 
L 4013 1971 
L 4013 1841 
C 4013 1003 3398 397 2547 397 
C 2074 397 1645 569 1370 870 
C 1062 1201 877 1756 877 2330 
C 877 3471 1530 4224 2515 4224 
C 3226 4224 3738 3864 3866 3272 
L 4474 3272 
C 4307 4211 3590 4750 2522 4750 
C 1952 4750 1491 4603 1126 4303 
C 589 3856 282 3135 282 2298 
C 282 868 1158 -128 2419 -128 
C 3053 -128 3558 109 4013 616 
L 4160 -7 
L 4538 -7 
L 4538 2496 
z
" transform="scale(0.015625)"/>
       <path id="NimbusSanL-Regu-44" d="M 570 0 
L 2368 0 
C 3546 0 4269 885 4269 2339 
C 4269 3787 3552 4672 2368 4672 
L 570 4672 
L 570 0 
z
M 1165 526 
L 1165 4146 
L 2266 4146 
C 3187 4146 3674 3524 3674 2333 
C 3674 1154 3187 526 2266 526 
L 1165 526 
z
" transform="scale(0.015625)"/>
       <path id="NimbusSanL-Regu-50" d="M 1178 1984 
L 2643 1984 
C 3008 1984 3296 2093 3546 2316 
C 3827 2573 3949 2873 3949 3303 
C 3949 4179 3430 4672 2509 4672 
L 582 4672 
L 582 -14 
L 1178 -14 
L 1178 1984 
z
M 1178 2510 
L 1178 4146 
L 2419 4146 
C 2989 4146 3328 3839 3328 3327 
C 3328 2816 2989 2510 2419 2510 
L 1178 2510 
z
" transform="scale(0.015625)"/>
       <path id="NimbusSanL-Regu-28" d="M 1510 4672 
C 870 3830 467 2660 467 1651 
C 467 636 870 -534 1510 -1376 
L 1862 -1376 
C 1299 -457 986 623 986 1651 
C 986 2673 1299 3759 1862 4672 
L 1510 4672 
z
" transform="scale(0.015625)"/>
       <path id="NimbusSanL-Regu-67" d="M 2637 3341 
L 2637 2854 
C 2368 3252 2042 3438 1613 3438 
C 762 3438 186 2692 186 1600 
C 186 1048 333 598 608 276 
C 858 -7 1216 -173 1568 -173 
C 1990 -173 2285 6 2586 429 
L 2586 258 
C 2586 -192 2528 -465 2394 -649 
C 2253 -844 1978 -959 1651 -959 
C 1408 -959 1190 -896 1043 -783 
C 922 -688 870 -600 838 -406 
L 294 -406 
C 352 -1033 845 -1408 1632 -1408 
C 2131 -1408 2560 -1247 2778 -979 
C 3034 -671 3130 -249 3130 538 
L 3130 3341 
L 2637 3341 
z
M 1670 2944 
C 2246 2944 2586 2455 2586 1613 
C 2586 808 2240 320 1677 320 
C 1094 320 742 816 742 1632 
C 742 2442 1101 2944 1670 2944 
z
" transform="scale(0.015625)"/>
       <path id="NimbusSanL-Regu-24" d="M 1555 4928 
L 1555 4585 
C 736 4483 294 4034 294 3303 
C 294 2900 448 2586 749 2368 
C 915 2246 1088 2176 1555 2035 
L 1555 289 
C 1267 327 1024 456 877 654 
C 781 802 755 911 717 1328 
L 211 1328 
C 166 416 653 -128 1555 -128 
L 1555 -800 
L 1933 -800 
L 1933 -153 
C 2278 -128 2515 -57 2726 71 
C 3098 303 3315 745 3315 1246 
C 3315 1702 3142 2023 2771 2235 
C 2605 2332 2522 2364 1933 2543 
L 1933 4128 
C 2362 4128 2662 3799 2669 3328 
L 3174 3328 
C 3174 4056 2707 4528 1933 4585 
L 1933 4928 
L 1555 4928 
z
M 1555 2595 
C 1050 2729 813 2979 813 3371 
C 813 3794 1082 4070 1555 4134 
L 1555 2595 
z
M 1933 1978 
C 2586 1786 2790 1592 2790 1169 
C 2790 918 2694 694 2522 526 
C 2368 379 2208 321 1933 289 
L 1933 1978 
z
" transform="scale(0.015625)"/>
       <path id="NimbusSanL-Regu-29" d="M 595 -1376 
C 1235 -534 1638 636 1638 1644 
C 1638 2660 1235 3830 595 4672 
L 243 4672 
C 806 3753 1120 2673 1120 1644 
C 1120 623 806 -464 243 -1376 
L 595 -1376 
z
" transform="scale(0.015625)"/>
      </defs>
      <use xlink:href="#NimbusSanL-Regu-47" transform="scale(0.996264)"/>
      <use xlink:href="#NimbusSanL-Regu-44" transform="translate(77.50837 0)scale(0.996264)"/>
      <use xlink:href="#NimbusSanL-Regu-50" transform="translate(149.438355 0)scale(0.996264)"/>
      <use xlink:href="#NimbusSanL-Regu-70" transform="translate(243.583556 0)scale(0.996264)"/>
      <use xlink:href="#NimbusSanL-Regu-65" transform="translate(298.975233 0)scale(0.996264)"/>
      <use xlink:href="#NimbusSanL-Regu-72" transform="translate(354.36691 0)scale(0.996264)"/>
      <use xlink:href="#NimbusSanL-Regu-63" transform="translate(415.237309 0)scale(0.996264)"/>
      <use xlink:href="#NimbusSanL-Regu-61" transform="translate(465.050509 0)scale(0.996264)"/>
      <use xlink:href="#NimbusSanL-Regu-70" transform="translate(520.442186 0)scale(0.996264)"/>
      <use xlink:href="#NimbusSanL-Regu-69" transform="translate(575.833863 0)scale(0.996264)"/>
      <use xlink:href="#NimbusSanL-Regu-74" transform="translate(597.950648 0)scale(0.996264)"/>
      <use xlink:href="#NimbusSanL-Regu-61" transform="translate(625.645817 0)scale(0.996264)"/>
      <use xlink:href="#NimbusSanL-Regu-28" transform="translate(708.732664 0)scale(0.996264)"/>
      <use xlink:href="#NimbusSanL-Regu-6c" transform="translate(741.907894 0)scale(0.996264)"/>
      <use xlink:href="#NimbusSanL-Regu-6f" transform="translate(764.024678 0)scale(0.996264)"/>
      <use xlink:href="#NimbusSanL-Regu-67" transform="translate(819.416355 0)scale(0.996264)"/>
      <use xlink:href="#NimbusSanL-Regu-28" transform="translate(874.808032 0)scale(0.996264)"/>
      <use xlink:href="#NimbusSanL-Regu-55" transform="translate(907.983262 0)scale(0.996264)"/>
      <use xlink:href="#NimbusSanL-Regu-53" transform="translate(979.913246 0)scale(0.996264)"/>
      <use xlink:href="#NimbusSanL-Regu-24" transform="translate(1046.363278 0)scale(0.996264)"/>
      <use xlink:href="#NimbusSanL-Regu-70" transform="translate(1101.754955 0)scale(0.996264)"/>
      <use xlink:href="#NimbusSanL-Regu-70" transform="translate(1157.146632 0)scale(0.996264)"/>
      <use xlink:href="#NimbusSanL-Regu-70" transform="translate(1212.538308 0)scale(0.996264)"/>
      <use xlink:href="#NimbusSanL-Regu-29" transform="translate(1267.929985 0)scale(0.996264)"/>
      <use xlink:href="#NimbusSanL-Regu-29" transform="translate(1301.105215 0)scale(0.996264)"/>
     </g>
    </g>
   </g>
   <g id="matplotlib.axis_2">
    <g id="ytick_1">
     <g id="line2d_15">
      <defs>
       <path id="m7fd7478bab" d="M 0 0 
L -3 0 
" style="stroke: #000000; stroke-width: 0.8"/>
      </defs>
      <g>
       <use xlink:href="#m7fd7478bab" x="40.45941" y="215.826326" style="stroke: #000000; stroke-width: 0.8"/>
      </g>
     </g>
     <g id="text_16">
      <!-- $\mathdefault{1.0}$ -->
      <g transform="translate(22.1842 219.02057)scale(0.09 -0.09)">
       <defs>
        <path id="CMMI12-3a" d="M 1178 307 
C 1178 492 1024 619 870 619 
C 685 619 557 466 557 313 
C 557 128 710 0 864 0 
C 1050 0 1178 153 1178 307 
z
" transform="scale(0.015625)"/>
       </defs>
       <use xlink:href="#CMR17-31" transform="scale(0.996264)"/>
       <use xlink:href="#CMMI12-3a" transform="translate(45.690477 0)scale(0.996264)"/>
       <use xlink:href="#CMR17-30" transform="translate(72.787654 0)scale(0.996264)"/>
      </g>
     </g>
    </g>
    <g id="ytick_2">
     <g id="line2d_16">
      <g>
       <use xlink:href="#m7fd7478bab" x="40.45941" y="190.361442" style="stroke: #000000; stroke-width: 0.8"/>
      </g>
     </g>
     <g id="text_17">
      <!-- $\mathdefault{1.5}$ -->
      <g transform="translate(22.1842 193.555686)scale(0.09 -0.09)">
       <defs>
        <path id="CMR17-35" d="M 730 3692 
C 794 3666 1056 3584 1325 3584 
C 1920 3584 2246 3911 2432 4100 
C 2432 4157 2432 4192 2394 4192 
C 2387 4192 2374 4192 2323 4163 
C 2099 4058 1837 3973 1517 3973 
C 1325 3973 1037 3999 723 4139 
C 653 4171 640 4171 634 4171 
C 602 4171 595 4164 595 4037 
L 595 2203 
C 595 2089 595 2057 659 2057 
C 691 2057 704 2070 736 2114 
C 941 2401 1222 2522 1542 2522 
C 1766 2522 2246 2382 2246 1289 
C 2246 1085 2246 715 2054 421 
C 1894 159 1645 25 1370 25 
C 947 25 518 320 403 814 
C 429 807 480 795 506 795 
C 589 795 749 840 749 1038 
C 749 1210 627 1280 506 1280 
C 358 1280 262 1190 262 1011 
C 262 454 704 -128 1382 -128 
C 2042 -128 2669 440 2669 1264 
C 2669 2030 2170 2624 1549 2624 
C 1222 2624 947 2503 730 2274 
L 730 3692 
z
" transform="scale(0.015625)"/>
       </defs>
       <use xlink:href="#CMR17-31" transform="scale(0.996264)"/>
       <use xlink:href="#CMMI12-3a" transform="translate(45.690477 0)scale(0.996264)"/>
       <use xlink:href="#CMR17-35" transform="translate(72.787654 0)scale(0.996264)"/>
      </g>
     </g>
    </g>
    <g id="ytick_3">
     <g id="line2d_17">
      <g>
       <use xlink:href="#m7fd7478bab" x="40.45941" y="164.896558" style="stroke: #000000; stroke-width: 0.8"/>
      </g>
     </g>
     <g id="text_18">
      <!-- $\mathdefault{2.0}$ -->
      <g transform="translate(22.1842 168.090802)scale(0.09 -0.09)">
       <defs>
        <path id="CMR17-32" d="M 2669 989 
L 2554 989 
C 2490 536 2438 459 2413 420 
C 2381 369 1920 369 1830 369 
L 602 369 
C 832 619 1280 1072 1824 1597 
C 2214 1967 2669 2402 2669 3035 
C 2669 3790 2067 4224 1395 4224 
C 691 4224 262 3604 262 3030 
C 262 2780 448 2748 525 2748 
C 589 2748 781 2787 781 3010 
C 781 3207 614 3264 525 3264 
C 486 3264 448 3258 422 3245 
C 544 3790 915 4058 1306 4058 
C 1862 4058 2227 3617 2227 3035 
C 2227 2479 1901 2000 1536 1584 
L 262 146 
L 262 0 
L 2515 0 
L 2669 989 
z
" transform="scale(0.015625)"/>
       </defs>
       <use xlink:href="#CMR17-32" transform="scale(0.996264)"/>
       <use xlink:href="#CMMI12-3a" transform="translate(45.690477 0)scale(0.996264)"/>
       <use xlink:href="#CMR17-30" transform="translate(72.787654 0)scale(0.996264)"/>
      </g>
     </g>
    </g>
    <g id="ytick_4">
     <g id="line2d_18">
      <g>
       <use xlink:href="#m7fd7478bab" x="40.45941" y="139.431673" style="stroke: #000000; stroke-width: 0.8"/>
      </g>
     </g>
     <g id="text_19">
      <!-- $\mathdefault{2.5}$ -->
      <g transform="translate(22.1842 142.625918)scale(0.09 -0.09)">
       <use xlink:href="#CMR17-32" transform="scale(0.996264)"/>
       <use xlink:href="#CMMI12-3a" transform="translate(45.690477 0)scale(0.996264)"/>
       <use xlink:href="#CMR17-35" transform="translate(72.787654 0)scale(0.996264)"/>
      </g>
     </g>
    </g>
    <g id="ytick_5">
     <g id="line2d_19">
      <g>
       <use xlink:href="#m7fd7478bab" x="40.45941" y="113.966789" style="stroke: #000000; stroke-width: 0.8"/>
      </g>
     </g>
     <g id="text_20">
      <!-- $\mathdefault{3.0}$ -->
      <g transform="translate(22.1842 117.161033)scale(0.09 -0.09)">
       <defs>
        <path id="CMR17-33" d="M 1414 2157 
C 1984 2157 2234 1662 2234 1090 
C 2234 320 1824 25 1453 25 
C 1114 25 563 194 390 693 
C 422 680 454 680 486 680 
C 640 680 755 782 755 948 
C 755 1133 614 1216 486 1216 
C 378 1216 211 1165 211 926 
C 211 335 787 -128 1466 -128 
C 2176 -128 2720 430 2720 1085 
C 2720 1707 2208 2157 1600 2227 
C 2086 2328 2554 2756 2554 3329 
C 2554 3820 2048 4179 1472 4179 
C 890 4179 378 3829 378 3329 
C 378 3110 544 3072 627 3072 
C 762 3072 877 3155 877 3321 
C 877 3486 762 3569 627 3569 
C 602 3569 570 3569 544 3557 
C 730 3959 1235 4032 1459 4032 
C 1683 4032 2106 3925 2106 3320 
C 2106 3143 2080 2828 1862 2550 
C 1670 2304 1453 2304 1242 2284 
C 1210 2284 1062 2269 1037 2269 
C 992 2263 966 2257 966 2208 
C 966 2163 973 2157 1101 2157 
L 1414 2157 
z
" transform="scale(0.015625)"/>
       </defs>
       <use xlink:href="#CMR17-33" transform="scale(0.996264)"/>
       <use xlink:href="#CMMI12-3a" transform="translate(45.690477 0)scale(0.996264)"/>
       <use xlink:href="#CMR17-30" transform="translate(72.787654 0)scale(0.996264)"/>
      </g>
     </g>
    </g>
    <g id="ytick_6">
     <g id="line2d_20">
      <g>
       <use xlink:href="#m7fd7478bab" x="40.45941" y="88.501905" style="stroke: #000000; stroke-width: 0.8"/>
      </g>
     </g>
     <g id="text_21">
      <!-- $\mathdefault{3.5}$ -->
      <g transform="translate(22.1842 91.696149)scale(0.09 -0.09)">
       <use xlink:href="#CMR17-33" transform="scale(0.996264)"/>
       <use xlink:href="#CMMI12-3a" transform="translate(45.690477 0)scale(0.996264)"/>
       <use xlink:href="#CMR17-35" transform="translate(72.787654 0)scale(0.996264)"/>
      </g>
     </g>
    </g>
    <g id="ytick_7">
     <g id="line2d_21">
      <g>
       <use xlink:href="#m7fd7478bab" x="40.45941" y="63.037021" style="stroke: #000000; stroke-width: 0.8"/>
      </g>
     </g>
     <g id="text_22">
      <!-- $\mathdefault{4.0}$ -->
      <g transform="translate(22.1842 66.231265)scale(0.09 -0.09)">
       <defs>
        <path id="CMR17-34" d="M 2150 4122 
C 2150 4256 2144 4256 2029 4256 
L 128 1254 
L 128 1088 
L 1779 1088 
L 1779 457 
C 1779 224 1766 160 1318 160 
L 1197 160 
L 1197 0 
C 1402 0 1747 0 1965 0 
C 2182 0 2528 0 2733 0 
L 2733 160 
L 2611 160 
C 2163 160 2150 224 2150 457 
L 2150 1088 
L 2803 1088 
L 2803 1254 
L 2150 1254 
L 2150 4122 
z
M 1798 3703 
L 1798 1254 
L 256 1254 
L 1798 3703 
z
" transform="scale(0.015625)"/>
       </defs>
       <use xlink:href="#CMR17-34" transform="scale(0.996264)"/>
       <use xlink:href="#CMMI12-3a" transform="translate(45.690477 0)scale(0.996264)"/>
       <use xlink:href="#CMR17-30" transform="translate(72.787654 0)scale(0.996264)"/>
      </g>
     </g>
    </g>
    <g id="ytick_8">
     <g id="line2d_22">
      <g>
       <use xlink:href="#m7fd7478bab" x="40.45941" y="37.572137" style="stroke: #000000; stroke-width: 0.8"/>
      </g>
     </g>
     <g id="text_23">
      <!-- $\mathdefault{4.5}$ -->
      <g transform="translate(22.1842 40.766381)scale(0.09 -0.09)">
       <use xlink:href="#CMR17-34" transform="scale(0.996264)"/>
       <use xlink:href="#CMMI12-3a" transform="translate(45.690477 0)scale(0.996264)"/>
       <use xlink:href="#CMR17-35" transform="translate(72.787654 0)scale(0.996264)"/>
      </g>
     </g>
    </g>
    <g id="text_24">
     <!-- $E_{hh}$ per capita (log(GJ)) -->
     <g transform="translate(16.274416 169.443398)rotate(-90)scale(0.09 -0.09)">
      <defs>
       <path id="CMMI12-45" d="M 4448 1489 
C 4454 1508 4474 1554 4474 1579 
C 4474 1611 4448 1643 4410 1643 
C 4384 1643 4371 1637 4352 1617 
C 4339 1611 4339 1598 4282 1469 
C 3904 570 3629 185 2605 185 
L 1670 185 
C 1581 185 1568 185 1530 192 
C 1459 198 1453 211 1453 262 
C 1453 307 1466 345 1478 403 
L 1920 2176 
L 2554 2176 
C 3053 2176 3091 2066 3091 1874 
C 3091 1810 3091 1752 3046 1560 
C 3034 1534 3027 1508 3027 1489 
C 3027 1444 3059 1425 3098 1425 
C 3155 1425 3162 1469 3187 1559 
L 3552 3042 
C 3552 3073 3526 3105 3488 3105 
C 3430 3105 3424 3080 3398 2990 
C 3270 2501 3142 2361 2573 2361 
L 1965 2361 
L 2362 3930 
C 2419 4154 2432 4154 2694 4154 
L 3610 4154 
C 4397 4154 4557 3943 4557 3458 
C 4557 3451 4557 3273 4531 3062 
C 4525 3036 4518 2998 4518 2985 
C 4518 2934 4550 2915 4589 2915 
C 4634 2915 4659 2941 4672 3055 
L 4806 4174 
C 4806 4195 4819 4263 4819 4277 
C 4819 4352 4762 4352 4646 4352 
L 1523 4352 
C 1402 4352 1338 4352 1338 4229 
C 1338 4154 1382 4154 1491 4154 
C 1888 4154 1888 4114 1888 4052 
C 1888 4020 1882 3994 1862 3924 
L 998 473 
C 941 249 928 185 480 185 
C 358 185 294 185 294 70 
C 294 0 333 0 461 0 
L 3674 0 
C 3814 0 3821 6 3866 110 
L 4448 1489 
z
" transform="scale(0.015625)"/>
       <path id="CMMI12-68" d="M 1798 4257 
C 1805 4283 1818 4321 1818 4352 
C 1818 4416 1754 4416 1741 4416 
C 1734 4416 1421 4388 1389 4380 
C 1280 4373 1184 4358 1069 4358 
C 909 4345 864 4339 864 4224 
C 864 4160 915 4160 1005 4160 
C 1318 4160 1325 4103 1325 4040 
C 1325 4002 1312 3951 1306 3932 
L 378 248 
C 352 152 352 140 352 101 
C 352 -38 461 -64 525 -64 
C 634 -64 717 19 749 89 
L 1037 1245 
C 1069 1386 1107 1520 1139 1660 
C 1210 1929 1210 1935 1331 2120 
C 1453 2305 1741 2689 2234 2689 
C 2490 2689 2579 2497 2579 2242 
C 2579 1884 2330 1188 2189 805 
C 2131 651 2099 568 2099 453 
C 2099 166 2298 -64 2605 -64 
C 3200 -64 3424 875 3424 913 
C 3424 945 3398 971 3360 971 
C 3302 971 3296 952 3264 843 
C 3117 332 2880 64 2624 64 
C 2560 64 2458 64 2458 269 
C 2458 436 2534 640 2560 710 
C 2675 1018 2963 1773 2963 2145 
C 2963 2528 2739 2816 2253 2816 
C 1888 2816 1568 2644 1306 2312 
L 1798 4257 
z
" transform="scale(0.015625)"/>
      </defs>
      <use xlink:href="#CMMI12-45" transform="scale(0.996264)"/>
      <use xlink:href="#CMMI12-68" transform="translate(72.211218 -14.943915)scale(0.697382)"/>
      <use xlink:href="#CMMI12-68" transform="translate(111.519272 -14.943915)scale(0.697382)"/>
      <use xlink:href="#NimbusSanL-Regu-70" transform="translate(179.020628 0)scale(0.996264)"/>
      <use xlink:href="#NimbusSanL-Regu-65" transform="translate(234.412305 0)scale(0.996264)"/>
      <use xlink:href="#NimbusSanL-Regu-72" transform="translate(289.803982 0)scale(0.996264)"/>
      <use xlink:href="#NimbusSanL-Regu-63" transform="translate(350.674381 0)scale(0.996264)"/>
      <use xlink:href="#NimbusSanL-Regu-61" transform="translate(400.487582 0)scale(0.996264)"/>
      <use xlink:href="#NimbusSanL-Regu-70" transform="translate(455.879259 0)scale(0.996264)"/>
      <use xlink:href="#NimbusSanL-Regu-69" transform="translate(511.270936 0)scale(0.996264)"/>
      <use xlink:href="#NimbusSanL-Regu-74" transform="translate(533.38772 0)scale(0.996264)"/>
      <use xlink:href="#NimbusSanL-Regu-61" transform="translate(561.08289 0)scale(0.996264)"/>
      <use xlink:href="#NimbusSanL-Regu-28" transform="translate(644.169736 0)scale(0.996264)"/>
      <use xlink:href="#NimbusSanL-Regu-6c" transform="translate(677.344966 0)scale(0.996264)"/>
      <use xlink:href="#NimbusSanL-Regu-6f" transform="translate(699.46175 0)scale(0.996264)"/>
      <use xlink:href="#NimbusSanL-Regu-67" transform="translate(754.853427 0)scale(0.996264)"/>
      <use xlink:href="#NimbusSanL-Regu-28" transform="translate(810.245104 0)scale(0.996264)"/>
      <use xlink:href="#NimbusSanL-Regu-47" transform="translate(843.420334 0)scale(0.996264)"/>
      <use xlink:href="#NimbusSanL-Regu-4a" transform="translate(920.928704 0)scale(0.996264)"/>
      <use xlink:href="#NimbusSanL-Regu-29" transform="translate(970.741905 0)scale(0.996264)"/>
      <use xlink:href="#NimbusSanL-Regu-29" transform="translate(1003.917134 0)scale(0.996264)"/>
     </g>
    </g>
   </g>
   <g id="PathCollection_1">
    <defs>
     <path id="m19cf3432af" d="M 0 1.5 
C 0.397805 1.5 0.77937 1.341951 1.06066 1.06066 
C 1.341951 0.77937 1.5 0.397805 1.5 0 
C 1.5 -0.397805 1.341951 -0.77937 1.06066 -1.06066 
C 0.77937 -1.341951 0.397805 -1.5 0 -1.5 
C -0.397805 -1.5 -0.77937 -1.341951 -1.06066 -1.06066 
C -1.341951 -0.77937 -1.5 -0.397805 -1.5 0 
C -1.5 0.397805 -1.341951 0.77937 -1.06066 1.06066 
C -0.77937 1.341951 -0.397805 1.5 0 1.5 
z
" style="stroke: #56b4e9"/>
    </defs>
    <g clip-path="url(#p1c129ffaea)">
     <use xlink:href="#m19cf3432af" x="49.666021" y="138.950071" style="fill: #56b4e9; stroke: #56b4e9"/>
    </g>
   </g>
   <g id="PathCollection_2">
    <defs>
     <path id="m006f23385d" d="M 0 1.5 
C 0.397805 1.5 0.77937 1.341951 1.06066 1.06066 
C 1.341951 0.77937 1.5 0.397805 1.5 0 
C 1.5 -0.397805 1.341951 -0.77937 1.06066 -1.06066 
C 0.77937 -1.341951 0.397805 -1.5 0 -1.5 
C -0.397805 -1.5 -0.77937 -1.341951 -1.06066 -1.06066 
C -1.341951 -0.77937 -1.5 -0.397805 -1.5 0 
C -1.5 0.397805 -1.341951 0.77937 -1.06066 1.06066 
C -0.77937 1.341951 -0.397805 1.5 0 1.5 
z
" style="stroke: #fbafe4"/>
    </defs>
    <g clip-path="url(#p1c129ffaea)">
     <use xlink:href="#m006f23385d" x="77.55839" y="155.447279" style="fill: #fbafe4; stroke: #fbafe4"/>
    </g>
   </g>
   <g id="PathCollection_3">
    <defs>
     <path id="mfd94c893bf" d="M 0 1.5 
C 0.397805 1.5 0.77937 1.341951 1.06066 1.06066 
C 1.341951 0.77937 1.5 0.397805 1.5 0 
C 1.5 -0.397805 1.341951 -0.77937 1.06066 -1.06066 
C 0.77937 -1.341951 0.397805 -1.5 0 -1.5 
C -0.397805 -1.5 -0.77937 -1.341951 -1.06066 -1.06066 
C -1.341951 -0.77937 -1.5 -0.397805 -1.5 0 
C -1.5 0.397805 -1.341951 0.77937 -1.06066 1.06066 
C -0.77937 1.341951 -0.397805 1.5 0 1.5 
z
" style="stroke: #ca9161"/>
    </defs>
    <g clip-path="url(#p1c129ffaea)">
     <use xlink:href="#mfd94c893bf" x="97.044808" y="152.475592" style="fill: #ca9161; stroke: #ca9161"/>
    </g>
   </g>
   <g id="PathCollection_4">
    <g clip-path="url(#p1c129ffaea)">
     <use xlink:href="#mfd94c893bf" x="109.038099" y="132.587323" style="fill: #ca9161; stroke: #ca9161"/>
    </g>
   </g>
   <g id="PathCollection_5">
    <g clip-path="url(#p1c129ffaea)">
     <use xlink:href="#m19cf3432af" x="117.233003" y="112.324999" style="fill: #56b4e9; stroke: #56b4e9"/>
    </g>
   </g>
   <g id="PathCollection_6">
    <defs>
     <path id="mfee3f0f7e7" d="M 0 1.5 
C 0.397805 1.5 0.77937 1.341951 1.06066 1.06066 
C 1.341951 0.77937 1.5 0.397805 1.5 0 
C 1.5 -0.397805 1.341951 -0.77937 1.06066 -1.06066 
C 0.77937 -1.341951 0.397805 -1.5 0 -1.5 
C -0.397805 -1.5 -0.77937 -1.341951 -1.06066 -1.06066 
C -1.341951 -0.77937 -1.5 -0.397805 -1.5 0 
C -1.5 0.397805 -1.341951 0.77937 -1.06066 1.06066 
C -0.77937 1.341951 -0.397805 1.5 0 1.5 
z
" style="stroke: #0173b2"/>
    </defs>
    <g clip-path="url(#p1c129ffaea)">
     <use xlink:href="#mfee3f0f7e7" x="119.723888" y="112.474764" style="fill: #0173b2; stroke: #0173b2"/>
    </g>
   </g>
   <g id="PathCollection_7">
    <defs>
     <path id="mb64de56a8d" d="M 0 1.5 
C 0.397805 1.5 0.77937 1.341951 1.06066 1.06066 
C 1.341951 0.77937 1.5 0.397805 1.5 0 
C 1.5 -0.397805 1.341951 -0.77937 1.06066 -1.06066 
C 0.77937 -1.341951 0.397805 -1.5 0 -1.5 
C -0.397805 -1.5 -0.77937 -1.341951 -1.06066 -1.06066 
C -1.341951 -0.77937 -1.5 -0.397805 -1.5 0 
C -1.5 0.397805 -1.341951 0.77937 -1.06066 1.06066 
C -0.77937 1.341951 -0.397805 1.5 0 1.5 
z
" style="stroke: #cc78bc"/>
    </defs>
    <g clip-path="url(#p1c129ffaea)">
     <use xlink:href="#mb64de56a8d" x="122.32792" y="135.578867" style="fill: #cc78bc; stroke: #cc78bc"/>
    </g>
   </g>
   <g id="PathCollection_8">
    <defs>
     <path id="me0887521d8" d="M 0 1.5 
C 0.397805 1.5 0.77937 1.341951 1.06066 1.06066 
C 1.341951 0.77937 1.5 0.397805 1.5 0 
C 1.5 -0.397805 1.341951 -0.77937 1.06066 -1.06066 
C 0.77937 -1.341951 0.397805 -1.5 0 -1.5 
C -0.397805 -1.5 -0.77937 -1.341951 -1.06066 -1.06066 
C -1.341951 -0.77937 -1.5 -0.397805 -1.5 0 
C -1.5 0.397805 -1.341951 0.77937 -1.06066 1.06066 
C -0.77937 1.341951 -0.397805 1.5 0 1.5 
z
" style="stroke: #029e73"/>
    </defs>
    <g clip-path="url(#p1c129ffaea)">
     <use xlink:href="#me0887521d8" x="123.689587" y="135.977465" style="fill: #029e73; stroke: #029e73"/>
    </g>
   </g>
   <g id="PathCollection_9">
    <g clip-path="url(#p1c129ffaea)">
     <use xlink:href="#me0887521d8" x="123.714313" y="145.985194" style="fill: #029e73; stroke: #029e73"/>
    </g>
   </g>
   <g id="PathCollection_10">
    <g clip-path="url(#p1c129ffaea)">
     <use xlink:href="#me0887521d8" x="140.97711" y="133.049815" style="fill: #029e73; stroke: #029e73"/>
    </g>
   </g>
   <g id="PathCollection_11">
    <defs>
     <path id="m3a99d0149c" d="M 0 1.5 
C 0.397805 1.5 0.77937 1.341951 1.06066 1.06066 
C 1.341951 0.77937 1.5 0.397805 1.5 0 
C 1.5 -0.397805 1.341951 -0.77937 1.06066 -1.06066 
C 0.77937 -1.341951 0.397805 -1.5 0 -1.5 
C -0.397805 -1.5 -0.77937 -1.341951 -1.06066 -1.06066 
C -1.341951 -0.77937 -1.5 -0.397805 -1.5 0 
C -1.5 0.397805 -1.341951 0.77937 -1.06066 1.06066 
C -0.77937 1.341951 -0.397805 1.5 0 1.5 
z
" style="stroke: #808000"/>
    </defs>
    <g clip-path="url(#p1c129ffaea)">
     <use xlink:href="#m3a99d0149c" x="141.416631" y="109.101593" style="fill: #808000; stroke: #808000"/>
    </g>
   </g>
   <g id="PathCollection_12">
    <g clip-path="url(#p1c129ffaea)">
     <use xlink:href="#mfee3f0f7e7" x="144.66895" y="109.25781" style="fill: #0173b2; stroke: #0173b2"/>
    </g>
   </g>
   <g id="PathCollection_13">
    <defs>
     <path id="me28da19ad6" d="M 0 1.5 
C 0.397805 1.5 0.77937 1.341951 1.06066 1.06066 
C 1.341951 0.77937 1.5 0.397805 1.5 0 
C 1.5 -0.397805 1.341951 -0.77937 1.06066 -1.06066 
C 0.77937 -1.341951 0.397805 -1.5 0 -1.5 
C -0.397805 -1.5 -0.77937 -1.341951 -1.06066 -1.06066 
C -1.341951 -0.77937 -1.5 -0.397805 -1.5 0 
C -1.5 0.397805 -1.341951 0.77937 -1.06066 1.06066 
C -0.77937 1.341951 -0.397805 1.5 0 1.5 
z
" style="stroke: #ece133"/>
    </defs>
    <g clip-path="url(#p1c129ffaea)">
     <use xlink:href="#me28da19ad6" x="155.173611" y="68.407444" style="fill: #ece133; stroke: #ece133"/>
    </g>
   </g>
   <g id="PathCollection_14">
    <g clip-path="url(#p1c129ffaea)">
     <use xlink:href="#mfee3f0f7e7" x="156.369269" y="92.195093" style="fill: #0173b2; stroke: #0173b2"/>
    </g>
   </g>
   <g id="PathCollection_15">
    <g clip-path="url(#p1c129ffaea)">
     <use xlink:href="#mfee3f0f7e7" x="157.616805" y="97.230979" style="fill: #0173b2; stroke: #0173b2"/>
    </g>
   </g>
   <g id="PathCollection_16">
    <g clip-path="url(#p1c129ffaea)">
     <use xlink:href="#mfd94c893bf" x="159.390188" y="142.68968" style="fill: #ca9161; stroke: #ca9161"/>
    </g>
   </g>
   <g id="PathCollection_17">
    <g clip-path="url(#p1c129ffaea)">
     <use xlink:href="#mfee3f0f7e7" x="159.951349" y="88.323097" style="fill: #0173b2; stroke: #0173b2"/>
    </g>
   </g>
   <g id="PathCollection_18">
    <g clip-path="url(#p1c129ffaea)">
     <use xlink:href="#mfee3f0f7e7" x="161.041203" y="96.14209" style="fill: #0173b2; stroke: #0173b2"/>
    </g>
   </g>
   <g id="PathCollection_19">
    <g clip-path="url(#p1c129ffaea)">
     <use xlink:href="#mfee3f0f7e7" x="161.848295" y="74.982487" style="fill: #0173b2; stroke: #0173b2"/>
    </g>
   </g>
   <g id="PathCollection_20">
    <g clip-path="url(#p1c129ffaea)">
     <use xlink:href="#mfee3f0f7e7" x="162.341775" y="102.967875" style="fill: #0173b2; stroke: #0173b2"/>
    </g>
   </g>
   <g id="PathCollection_21">
    <g clip-path="url(#p1c129ffaea)">
     <use xlink:href="#mfee3f0f7e7" x="164.304353" y="110.42236" style="fill: #0173b2; stroke: #0173b2"/>
    </g>
   </g>
   <g id="PathCollection_22">
    <g clip-path="url(#p1c129ffaea)">
     <use xlink:href="#mfee3f0f7e7" x="167.957824" y="108.001226" style="fill: #0173b2; stroke: #0173b2"/>
    </g>
   </g>
   <g id="PathCollection_23">
    <g clip-path="url(#p1c129ffaea)">
     <use xlink:href="#mfee3f0f7e7" x="169.138236" y="62.857643" style="fill: #0173b2; stroke: #0173b2"/>
    </g>
   </g>
   <g id="PathCollection_24">
    <g clip-path="url(#p1c129ffaea)">
     <use xlink:href="#mfee3f0f7e7" x="169.210615" y="84.785911" style="fill: #0173b2; stroke: #0173b2"/>
    </g>
   </g>
   <g id="PathCollection_25">
    <g clip-path="url(#p1c129ffaea)">
     <use xlink:href="#mfee3f0f7e7" x="173.469507" y="80.195275" style="fill: #0173b2; stroke: #0173b2"/>
    </g>
   </g>
   <g id="PathCollection_26">
    <g clip-path="url(#p1c129ffaea)">
     <use xlink:href="#mfd94c893bf" x="175.276803" y="87.646594" style="fill: #ca9161; stroke: #ca9161"/>
    </g>
   </g>
   <g id="PathCollection_27">
    <g clip-path="url(#p1c129ffaea)">
     <use xlink:href="#mfee3f0f7e7" x="176.109098" y="86.155441" style="fill: #0173b2; stroke: #0173b2"/>
    </g>
   </g>
   <g id="PathCollection_28">
    <g clip-path="url(#p1c129ffaea)">
     <use xlink:href="#mfee3f0f7e7" x="177.648609" y="92.043443" style="fill: #0173b2; stroke: #0173b2"/>
    </g>
   </g>
   <g id="PathCollection_29">
    <defs>
     <path id="me70b2aa621" d="M 0 1.5 
C 0.397805 1.5 0.77937 1.341951 1.06066 1.06066 
C 1.341951 0.77937 1.5 0.397805 1.5 0 
C 1.5 -0.397805 1.341951 -0.77937 1.06066 -1.06066 
C 0.77937 -1.341951 0.397805 -1.5 0 -1.5 
C -0.397805 -1.5 -0.77937 -1.341951 -1.06066 -1.06066 
C -1.341951 -0.77937 -1.5 -0.397805 -1.5 0 
C -1.5 0.397805 -1.341951 0.77937 -1.06066 1.06066 
C -0.77937 1.341951 -0.397805 1.5 0 1.5 
z
" style="stroke: #949494"/>
    </defs>
    <g clip-path="url(#p1c129ffaea)">
     <use xlink:href="#me70b2aa621" x="179.250832" y="94.401021" style="fill: #949494; stroke: #949494"/>
    </g>
   </g>
   <g id="PathCollection_30">
    <g clip-path="url(#p1c129ffaea)">
     <use xlink:href="#me70b2aa621" x="179.479902" y="106.151092" style="fill: #949494; stroke: #949494"/>
    </g>
   </g>
   <g id="PathCollection_31">
    <g clip-path="url(#p1c129ffaea)">
     <use xlink:href="#mfee3f0f7e7" x="180.441377" y="148.820029" style="fill: #0173b2; stroke: #0173b2"/>
    </g>
   </g>
   <g id="PathCollection_32">
    <g clip-path="url(#p1c129ffaea)">
     <use xlink:href="#mfee3f0f7e7" x="180.497184" y="90.007552" style="fill: #0173b2; stroke: #0173b2"/>
    </g>
   </g>
   <g id="PathCollection_33">
    <g clip-path="url(#p1c129ffaea)">
     <use xlink:href="#mfee3f0f7e7" x="184.061592" y="89.151669" style="fill: #0173b2; stroke: #0173b2"/>
    </g>
   </g>
   <g id="PathCollection_34">
    <g clip-path="url(#p1c129ffaea)">
     <use xlink:href="#mfee3f0f7e7" x="185.646053" y="85.127707" style="fill: #0173b2; stroke: #0173b2"/>
    </g>
   </g>
   <g id="PathCollection_35">
    <g clip-path="url(#p1c129ffaea)">
     <use xlink:href="#mfd94c893bf" x="187.069642" y="107.030707" style="fill: #ca9161; stroke: #ca9161"/>
    </g>
   </g>
   <g id="PathCollection_36">
    <g clip-path="url(#p1c129ffaea)">
     <use xlink:href="#mfee3f0f7e7" x="187.350675" y="70.693955" style="fill: #0173b2; stroke: #0173b2"/>
    </g>
   </g>
   <g id="PathCollection_37">
    <defs>
     <path id="m424e0c9d60" d="M 0 1.5 
C 0.397805 1.5 0.77937 1.341951 1.06066 1.06066 
C 1.341951 0.77937 1.5 0.397805 1.5 0 
C 1.5 -0.397805 1.341951 -0.77937 1.06066 -1.06066 
C 0.77937 -1.341951 0.397805 -1.5 0 -1.5 
C -0.397805 -1.5 -0.77937 -1.341951 -1.06066 -1.06066 
C -1.341951 -0.77937 -1.5 -0.397805 -1.5 0 
C -1.5 0.397805 -1.341951 0.77937 -1.06066 1.06066 
C -0.77937 1.341951 -0.397805 1.5 0 1.5 
z
" style="stroke: #d55e00"/>
    </defs>
    <g clip-path="url(#p1c129ffaea)">
     <use xlink:href="#m424e0c9d60" x="188.677551" y="47.903203" style="fill: #d55e00; stroke: #d55e00"/>
    </g>
   </g>
   <g id="PathCollection_38">
    <defs>
     <path id="m69207f0eed" d="M 0 1.5 
C 0.397805 1.5 0.77937 1.341951 1.06066 1.06066 
C 1.341951 0.77937 1.5 0.397805 1.5 0 
C 1.5 -0.397805 1.341951 -0.77937 1.06066 -1.06066 
C 0.77937 -1.341951 0.397805 -1.5 0 -1.5 
C -0.397805 -1.5 -0.77937 -1.341951 -1.06066 -1.06066 
C -1.341951 -0.77937 -1.5 -0.397805 -1.5 0 
C -1.5 0.397805 -1.341951 0.77937 -1.06066 1.06066 
C -0.77937 1.341951 -0.397805 1.5 0 1.5 
z
" style="stroke: #de8f05"/>
    </defs>
    <g clip-path="url(#p1c129ffaea)">
     <use xlink:href="#m69207f0eed" x="190.303113" y="75.193956" style="fill: #de8f05; stroke: #de8f05"/>
    </g>
   </g>
   <g id="PathCollection_39">
    <g clip-path="url(#p1c129ffaea)">
     <use xlink:href="#mfee3f0f7e7" x="190.961877" y="80.792722" style="fill: #0173b2; stroke: #0173b2"/>
    </g>
   </g>
   <g id="PathCollection_40">
    <g clip-path="url(#p1c129ffaea)">
     <use xlink:href="#mfee3f0f7e7" x="192.957343" y="77.560796" style="fill: #0173b2; stroke: #0173b2"/>
    </g>
   </g>
   <g id="PathCollection_41">
    <g clip-path="url(#p1c129ffaea)">
     <use xlink:href="#mfee3f0f7e7" x="193.28147" y="72.572693" style="fill: #0173b2; stroke: #0173b2"/>
    </g>
   </g>
   <g id="PathCollection_42">
    <g clip-path="url(#p1c129ffaea)">
     <use xlink:href="#mfee3f0f7e7" x="194.918948" y="69.602624" style="fill: #0173b2; stroke: #0173b2"/>
    </g>
   </g>
   <g id="PathCollection_43">
    <g clip-path="url(#p1c129ffaea)">
     <use xlink:href="#mfee3f0f7e7" x="195.303964" y="70.092861" style="fill: #0173b2; stroke: #0173b2"/>
    </g>
   </g>
   <g id="PathCollection_44">
    <g clip-path="url(#p1c129ffaea)">
     <use xlink:href="#mfee3f0f7e7" x="195.599126" y="89.675983" style="fill: #0173b2; stroke: #0173b2"/>
    </g>
   </g>
   <g id="PathCollection_45">
    <g clip-path="url(#p1c129ffaea)">
     <use xlink:href="#m424e0c9d60" x="199.91943" y="39.21755" style="fill: #d55e00; stroke: #d55e00"/>
    </g>
   </g>
   <g id="PathCollection_46">
    <g clip-path="url(#p1c129ffaea)">
     <use xlink:href="#mfee3f0f7e7" x="202.503662" y="80.179086" style="fill: #0173b2; stroke: #0173b2"/>
    </g>
   </g>
   <g id="PathCollection_47">
    <g clip-path="url(#p1c129ffaea)">
     <use xlink:href="#mfee3f0f7e7" x="205.972947" y="81.43038" style="fill: #0173b2; stroke: #0173b2"/>
    </g>
   </g>
   <g id="PathCollection_48">
    <g clip-path="url(#p1c129ffaea)">
     <use xlink:href="#mfee3f0f7e7" x="214.173327" y="80.036223" style="fill: #0173b2; stroke: #0173b2"/>
    </g>
   </g>
   <g id="PathCollection_49">
    <g clip-path="url(#p1c129ffaea)">
     <use xlink:href="#mfee3f0f7e7" x="233.79824" y="65.862572" style="fill: #0173b2; stroke: #0173b2"/>
    </g>
   </g>
   <g id="line2d_23">
    <path d="M 49.666021 164.803575 
L 77.55839 148.462879 
L 97.044808 137.046795 
L 109.038099 130.020546 
L 117.233003 125.219576 
L 119.723888 123.760295 
L 122.32792 122.234727 
L 123.689587 121.436997 
L 123.714313 121.422512 
L 140.97711 111.309132 
L 141.416631 111.051639 
L 144.66895 109.146274 
L 155.173611 102.992137 
L 156.369269 102.291662 
L 157.616805 101.560795 
L 159.390188 100.521862 
L 159.951349 100.193107 
L 161.041203 99.554618 
L 161.848295 99.081785 
L 162.341775 98.79268 
L 164.304353 97.642907 
L 167.957824 95.502528 
L 169.138236 94.810985 
L 169.210615 94.768582 
L 173.469507 92.273517 
L 175.276803 91.214716 
L 176.109098 90.727117 
L 177.648609 89.825198 
L 179.250832 88.886539 
L 179.479902 88.752338 
L 180.441377 88.189059 
L 180.497184 88.156365 
L 184.061592 86.068163 
L 185.646053 85.139909 
L 187.069642 84.305902 
L 187.350675 84.141259 
L 188.677551 83.363911 
L 190.303113 82.411579 
L 190.961877 82.025643 
L 192.957343 80.856603 
L 193.28147 80.666714 
L 194.918948 79.7074 
L 195.303964 79.481839 
L 195.599126 79.308919 
L 199.91943 76.777876 
L 202.503662 75.263908 
L 205.972947 73.231434 
L 214.173327 68.427255 
L 233.79824 56.930034 
" clip-path="url(#p1c129ffaea)" style="fill: none; stroke: #000000; stroke-width: 1.5; stroke-linecap: square"/>
   </g>
   <g id="patch_4">
    <path d="M 40.45941 215.826326 
L 40.45941 27.386183 
" style="fill: none; stroke: #000000; stroke-width: 0.6; stroke-linejoin: miter; stroke-linecap: square"/>
   </g>
   <g id="patch_5">
    <path d="M 248.168826 215.826326 
L 248.168826 27.386183 
" style="fill: none; stroke: #000000; stroke-width: 0.6; stroke-linejoin: miter; stroke-linecap: square"/>
   </g>
   <g id="patch_6">
    <path d="M 40.45941 215.826326 
L 248.168826 215.826326 
" style="fill: none; stroke: #000000; stroke-width: 0.6; stroke-linejoin: miter; stroke-linecap: square"/>
   </g>
   <g id="patch_7">
    <path d="M 40.45941 27.386183 
L 248.168826 27.386183 
" style="fill: none; stroke: #000000; stroke-width: 0.6; stroke-linejoin: miter; stroke-linecap: square"/>
   </g>
   <g id="text_25">
    <!-- $R^2$ =0.56 -->
    <g transform="translate(65.520999 73.222974)scale(0.09 -0.09)">
     <defs>
      <path id="CMMI12-52" d="M 2355 3924 
C 2413 4160 2438 4160 2688 4160 
L 3149 4160 
C 3699 4160 4109 3995 4109 3499 
C 4109 3175 3942 2240 2656 2240 
L 1933 2240 
L 2355 3924 
z
M 3245 2169 
C 4038 2341 4659 2851 4659 3398 
C 4659 3894 4154 4352 3264 4352 
L 1530 4352 
C 1402 4352 1344 4352 1344 4226 
C 1344 4160 1389 4160 1510 4160 
C 1894 4160 1894 4112 1894 4045 
C 1894 4033 1894 3994 1869 3899 
L 1005 479 
C 947 256 934 192 493 192 
C 346 192 301 192 301 71 
C 301 7 371 7 390 7 
C 506 7 640 7 762 7 
L 1517 7 
C 1632 7 1766 7 1882 7 
C 1933 7 2003 7 2003 128 
C 2003 192 1946 192 1850 192 
C 1459 192 1459 243 1459 306 
C 1459 313 1459 357 1472 407 
L 1901 2112 
L 2669 2112 
C 3277 2112 3392 1731 3392 1522 
C 3392 1427 3328 1179 3283 1014 
C 3213 723 3194 652 3194 532 
C 3194 82 3565 -128 3994 -128 
C 4512 -128 4736 501 4736 591 
C 4736 635 4704 654 4666 654 
C 4614 654 4602 616 4589 565 
C 4435 114 4173 0 4013 0 
C 3853 0 3750 70 3750 356 
C 3750 509 3827 1088 3834 1120 
C 3866 1355 3866 1380 3866 1432 
C 3866 1896 3488 2093 3245 2169 
z
" transform="scale(0.015625)"/>
      <path id="NimbusSanL-Regu-3d" d="M 3418 2241 
L 320 2241 
L 320 1792 
L 3418 1792 
L 3418 2241 
z
M 3418 1152 
L 320 1152 
L 320 704 
L 3418 704 
L 3418 1152 
z
" transform="scale(0.015625)"/>
      <path id="NimbusSanL-Regu-30" d="M 1760 4544 
C 1338 4544 954 4360 717 4046 
C 422 3651 275 3044 275 2208 
C 275 683 787 -128 1760 -128 
C 2720 -128 3245 683 3245 2170 
C 3245 3050 3104 3638 2803 4046 
C 2566 4366 2189 4544 1760 4544 
z
M 1760 4044 
C 2368 4044 2669 3432 2669 2221 
C 2669 939 2374 340 1747 340 
C 1152 340 851 965 851 2202 
C 851 3438 1152 4044 1760 4044 
z
" transform="scale(0.015625)"/>
      <path id="NimbusSanL-Regu-2e" d="M 1222 667 
L 557 667 
L 557 0 
L 1222 0 
L 1222 667 
z
" transform="scale(0.015625)"/>
      <path id="NimbusSanL-Regu-35" d="M 3046 4544 
L 704 4544 
L 365 2086 
L 883 2086 
C 1146 2399 1363 2508 1715 2508 
C 2323 2508 2707 2092 2707 1421 
C 2707 768 2330 372 1715 372 
C 1222 372 922 621 787 1133 
L 224 1133 
C 301 762 365 582 499 415 
C 755 70 1216 -128 1728 -128 
C 2643 -128 3283 537 3283 1497 
C 3283 2394 2688 3008 1818 3008 
C 1498 3008 1242 2925 979 2732 
L 1158 3987 
L 3046 3987 
L 3046 4544 
z
" transform="scale(0.015625)"/>
      <path id="NimbusSanL-Regu-36" d="M 3187 3382 
C 3078 4111 2592 4544 1901 4544 
C 1402 4544 954 4302 685 3900 
C 403 3460 275 2904 275 2081 
C 275 1321 390 836 659 434 
C 902 69 1299 -128 1798 -128 
C 2662 -128 3283 518 3283 1415 
C 3283 2268 2707 2868 1894 2868 
C 1446 2868 1094 2695 851 2362 
C 858 3444 1216 4044 1862 4044 
C 2259 4044 2534 3803 2624 3382 
L 3187 3382 
z
M 1824 2368 
C 2368 2368 2707 1986 2707 1370 
C 2707 793 2323 372 1805 372 
C 1280 372 883 813 883 1402 
C 883 1973 1267 2368 1824 2368 
z
" transform="scale(0.015625)"/>
     </defs>
     <use xlink:href="#CMMI12-52" transform="scale(0.996264)"/>
     <use xlink:href="#CMR17-32" transform="translate(75.070962 36.153639)scale(0.697382)"/>
     <use xlink:href="#NimbusSanL-Regu-3d" transform="translate(135.247445 0)scale(0.996264)"/>
     <use xlink:href="#NimbusSanL-Regu-30" transform="translate(193.428938 0)scale(0.996264)"/>
     <use xlink:href="#NimbusSanL-Regu-2e" transform="translate(248.820615 0)scale(0.996264)"/>
     <use xlink:href="#NimbusSanL-Regu-35" transform="translate(276.515785 0)scale(0.996264)"/>
     <use xlink:href="#NimbusSanL-Regu-36" transform="translate(331.907462 0)scale(0.996264)"/>
    </g>
   </g>
   <g id="text_26">
    <!-- a -->
    <g transform="translate(40.45941 17.386183)scale(0.108 -0.108)">
     <use xlink:href="#NimbusSanL-Regu-61" transform="scale(0.996264)"/>
    </g>
   </g>
  </g>
  <g id="axes_2">
   <g id="patch_8">
    <path d="M 286.570584 215.826326 
L 494.28 215.826326 
L 494.28 27.386183 
L 286.570584 27.386183 
z
" style="fill: #ffffff"/>
   </g>
   <g id="matplotlib.axis_3">
    <g id="xtick_4">
     <g id="line2d_24">
      <g>
       <use xlink:href="#mbb0fdb5bd4" x="338.492148" y="215.826326" style="stroke: #000000; stroke-width: 0.8"/>
      </g>
     </g>
     <g id="text_27">
      <!-- $\mathdefault{9}$ -->
      <g transform="translate(336.188302 230.714814)scale(0.09 -0.09)">
       <use xlink:href="#CMR17-39" transform="scale(0.996264)"/>
      </g>
     </g>
    </g>
    <g id="xtick_5">
     <g id="line2d_25">
      <g>
       <use xlink:href="#mbb0fdb5bd4" x="392.212097" y="215.826326" style="stroke: #000000; stroke-width: 0.8"/>
      </g>
     </g>
     <g id="text_28">
      <!-- $\mathdefault{10}$ -->
      <g transform="translate(387.604406 230.714814)scale(0.09 -0.09)">
       <use xlink:href="#CMR17-31" transform="scale(0.996264)"/>
       <use xlink:href="#CMR17-30" transform="translate(45.690477 0)scale(0.996264)"/>
      </g>
     </g>
    </g>
    <g id="xtick_6">
     <g id="line2d_26">
      <g>
       <use xlink:href="#mbb0fdb5bd4" x="445.932046" y="215.826326" style="stroke: #000000; stroke-width: 0.8"/>
      </g>
     </g>
     <g id="text_29">
      <!-- $\mathdefault{11}$ -->
      <g transform="translate(441.324355 230.714814)scale(0.09 -0.09)">
       <use xlink:href="#CMR17-31" transform="scale(0.996264)"/>
       <use xlink:href="#CMR17-31" transform="translate(45.690477 0)scale(0.996264)"/>
      </g>
     </g>
    </g>
    <g id="text_30">
     <!-- GDP per capita (log(US\$ppp)) -->
     <g transform="translate(330.382751 243.488326)scale(0.09 -0.09)">
      <use xlink:href="#NimbusSanL-Regu-47" transform="scale(0.996264)"/>
      <use xlink:href="#NimbusSanL-Regu-44" transform="translate(77.50837 0)scale(0.996264)"/>
      <use xlink:href="#NimbusSanL-Regu-50" transform="translate(149.438355 0)scale(0.996264)"/>
      <use xlink:href="#NimbusSanL-Regu-70" transform="translate(243.583556 0)scale(0.996264)"/>
      <use xlink:href="#NimbusSanL-Regu-65" transform="translate(298.975233 0)scale(0.996264)"/>
      <use xlink:href="#NimbusSanL-Regu-72" transform="translate(354.36691 0)scale(0.996264)"/>
      <use xlink:href="#NimbusSanL-Regu-63" transform="translate(415.237309 0)scale(0.996264)"/>
      <use xlink:href="#NimbusSanL-Regu-61" transform="translate(465.050509 0)scale(0.996264)"/>
      <use xlink:href="#NimbusSanL-Regu-70" transform="translate(520.442186 0)scale(0.996264)"/>
      <use xlink:href="#NimbusSanL-Regu-69" transform="translate(575.833863 0)scale(0.996264)"/>
      <use xlink:href="#NimbusSanL-Regu-74" transform="translate(597.950648 0)scale(0.996264)"/>
      <use xlink:href="#NimbusSanL-Regu-61" transform="translate(625.645817 0)scale(0.996264)"/>
      <use xlink:href="#NimbusSanL-Regu-28" transform="translate(708.732664 0)scale(0.996264)"/>
      <use xlink:href="#NimbusSanL-Regu-6c" transform="translate(741.907894 0)scale(0.996264)"/>
      <use xlink:href="#NimbusSanL-Regu-6f" transform="translate(764.024678 0)scale(0.996264)"/>
      <use xlink:href="#NimbusSanL-Regu-67" transform="translate(819.416355 0)scale(0.996264)"/>
      <use xlink:href="#NimbusSanL-Regu-28" transform="translate(874.808032 0)scale(0.996264)"/>
      <use xlink:href="#NimbusSanL-Regu-55" transform="translate(907.983262 0)scale(0.996264)"/>
      <use xlink:href="#NimbusSanL-Regu-53" transform="translate(979.913246 0)scale(0.996264)"/>
      <use xlink:href="#NimbusSanL-Regu-24" transform="translate(1046.363278 0)scale(0.996264)"/>
      <use xlink:href="#NimbusSanL-Regu-70" transform="translate(1101.754955 0)scale(0.996264)"/>
      <use xlink:href="#NimbusSanL-Regu-70" transform="translate(1157.146632 0)scale(0.996264)"/>
      <use xlink:href="#NimbusSanL-Regu-70" transform="translate(1212.538308 0)scale(0.996264)"/>
      <use xlink:href="#NimbusSanL-Regu-29" transform="translate(1267.929985 0)scale(0.996264)"/>
      <use xlink:href="#NimbusSanL-Regu-29" transform="translate(1301.105215 0)scale(0.996264)"/>
     </g>
    </g>
   </g>
   <g id="matplotlib.axis_4">
    <g id="ytick_9">
     <g id="line2d_27">
      <g>
       <use xlink:href="#m7fd7478bab" x="286.570584" y="215.826326" style="stroke: #000000; stroke-width: 0.8"/>
      </g>
     </g>
     <g id="text_31">
      <!-- $\mathdefault{0}$ -->
      <g transform="translate(275.462893 219.02057)scale(0.09 -0.09)">
       <use xlink:href="#CMR17-30" transform="scale(0.996264)"/>
      </g>
     </g>
    </g>
    <g id="ytick_10">
     <g id="line2d_28">
      <g>
       <use xlink:href="#m7fd7478bab" x="286.570584" y="188.906306" style="stroke: #000000; stroke-width: 0.8"/>
      </g>
     </g>
     <g id="text_32">
      <!-- $\mathdefault{10}$ -->
      <g transform="translate(270.855202 192.10055)scale(0.09 -0.09)">
       <use xlink:href="#CMR17-31" transform="scale(0.996264)"/>
       <use xlink:href="#CMR17-30" transform="translate(45.690477 0)scale(0.996264)"/>
      </g>
     </g>
    </g>
    <g id="ytick_11">
     <g id="line2d_29">
      <g>
       <use xlink:href="#m7fd7478bab" x="286.570584" y="161.986285" style="stroke: #000000; stroke-width: 0.8"/>
      </g>
     </g>
     <g id="text_33">
      <!-- $\mathdefault{20}$ -->
      <g transform="translate(270.855202 165.180529)scale(0.09 -0.09)">
       <use xlink:href="#CMR17-32" transform="scale(0.996264)"/>
       <use xlink:href="#CMR17-30" transform="translate(45.690477 0)scale(0.996264)"/>
      </g>
     </g>
    </g>
    <g id="ytick_12">
     <g id="line2d_30">
      <g>
       <use xlink:href="#m7fd7478bab" x="286.570584" y="135.066265" style="stroke: #000000; stroke-width: 0.8"/>
      </g>
     </g>
     <g id="text_34">
      <!-- $\mathdefault{30}$ -->
      <g transform="translate(270.855202 138.260509)scale(0.09 -0.09)">
       <use xlink:href="#CMR17-33" transform="scale(0.996264)"/>
       <use xlink:href="#CMR17-30" transform="translate(45.690477 0)scale(0.996264)"/>
      </g>
     </g>
    </g>
    <g id="ytick_13">
     <g id="line2d_31">
      <g>
       <use xlink:href="#m7fd7478bab" x="286.570584" y="108.146244" style="stroke: #000000; stroke-width: 0.8"/>
      </g>
     </g>
     <g id="text_35">
      <!-- $\mathdefault{40}$ -->
      <g transform="translate(270.855202 111.340488)scale(0.09 -0.09)">
       <use xlink:href="#CMR17-34" transform="scale(0.996264)"/>
       <use xlink:href="#CMR17-30" transform="translate(45.690477 0)scale(0.996264)"/>
      </g>
     </g>
    </g>
    <g id="ytick_14">
     <g id="line2d_32">
      <g>
       <use xlink:href="#m7fd7478bab" x="286.570584" y="81.226224" style="stroke: #000000; stroke-width: 0.8"/>
      </g>
     </g>
     <g id="text_36">
      <!-- $\mathdefault{50}$ -->
      <g transform="translate(270.855202 84.420468)scale(0.09 -0.09)">
       <use xlink:href="#CMR17-35" transform="scale(0.996264)"/>
       <use xlink:href="#CMR17-30" transform="translate(45.690477 0)scale(0.996264)"/>
      </g>
     </g>
    </g>
    <g id="ytick_15">
     <g id="line2d_33">
      <g>
       <use xlink:href="#m7fd7478bab" x="286.570584" y="54.306203" style="stroke: #000000; stroke-width: 0.8"/>
      </g>
     </g>
     <g id="text_37">
      <!-- $\mathdefault{60}$ -->
      <g transform="translate(270.855202 57.500447)scale(0.09 -0.09)">
       <defs>
        <path id="CMR17-36" d="M 678 2176 
C 678 3690 1395 4032 1811 4032 
C 1946 4032 2272 4009 2400 3776 
C 2298 3776 2106 3776 2106 3553 
C 2106 3381 2246 3323 2336 3323 
C 2394 3323 2566 3348 2566 3560 
C 2566 3954 2246 4179 1805 4179 
C 1043 4179 243 3390 243 1984 
C 243 253 966 -128 1478 -128 
C 2099 -128 2688 427 2688 1283 
C 2688 2081 2170 2662 1517 2662 
C 1126 2662 838 2407 678 1960 
L 678 2176 
z
M 1478 25 
C 691 25 691 1200 691 1436 
C 691 1896 909 2560 1504 2560 
C 1613 2560 1926 2560 2138 2120 
C 2253 1870 2253 1609 2253 1289 
C 2253 944 2253 690 2118 434 
C 1978 171 1773 25 1478 25 
z
" transform="scale(0.015625)"/>
       </defs>
       <use xlink:href="#CMR17-36" transform="scale(0.996264)"/>
       <use xlink:href="#CMR17-30" transform="translate(45.690477 0)scale(0.996264)"/>
      </g>
     </g>
    </g>
    <g id="ytick_16">
     <g id="line2d_34">
      <g>
       <use xlink:href="#m7fd7478bab" x="286.570584" y="27.386183" style="stroke: #000000; stroke-width: 0.8"/>
      </g>
     </g>
     <g id="text_38">
      <!-- $\mathdefault{70}$ -->
      <g transform="translate(270.855202 30.580427)scale(0.09 -0.09)">
       <defs>
        <path id="CMR17-37" d="M 2886 3941 
L 2886 4081 
L 1382 4081 
C 634 4081 621 4165 595 4288 
L 480 4288 
L 294 3094 
L 410 3094 
C 429 3215 474 3540 550 3661 
C 589 3712 1062 3712 1171 3712 
L 2579 3712 
L 1869 2661 
C 1395 1954 1069 999 1069 165 
C 1069 89 1069 -128 1299 -128 
C 1530 -128 1530 89 1530 171 
L 1530 465 
C 1530 1508 1709 2196 2003 2636 
L 2886 3941 
z
" transform="scale(0.015625)"/>
       </defs>
       <use xlink:href="#CMR17-37" transform="scale(0.996264)"/>
       <use xlink:href="#CMR17-30" transform="translate(45.690477 0)scale(0.996264)"/>
      </g>
     </g>
    </g>
    <g id="text_39">
     <!-- $E_{hh}/(E_{hh}+E_{cba})$ (\%) -->
     <g transform="translate(264.613608 166.263383)rotate(-90)scale(0.09 -0.09)">
      <defs>
       <path id="CMMI12-3d" d="M 2746 4562 
C 2746 4569 2784 4666 2784 4678 
C 2784 4755 2720 4800 2669 4800 
C 2637 4800 2579 4800 2528 4659 
L 384 -1363 
C 384 -1370 346 -1465 346 -1478 
C 346 -1555 410 -1600 461 -1600 
C 499 -1600 557 -1593 602 -1459 
L 2746 4562 
z
" transform="scale(0.015625)"/>
       <path id="CMR17-28" d="M 1958 -1561 
C 1958 -1555 1958 -1542 1939 -1523 
C 1645 -1224 858 -407 858 1581 
C 858 3569 1632 4379 1946 4697 
C 1946 4704 1958 4717 1958 4736 
C 1958 4755 1939 4768 1914 4768 
C 1843 4768 1299 4296 986 3594 
C 666 2887 576 2199 576 1588 
C 576 1128 621 351 1005 -471 
C 1312 -1135 1837 -1600 1914 -1600 
C 1946 -1600 1958 -1587 1958 -1561 
z
" transform="scale(0.015625)"/>
       <path id="CMR17-2b" d="M 2413 1472 
L 4109 1472 
C 4198 1472 4307 1472 4307 1580 
C 4307 1695 4205 1695 4109 1695 
L 2413 1695 
L 2413 3386 
C 2413 3475 2413 3584 2304 3584 
C 2189 3584 2189 3482 2189 3386 
L 2189 1695 
L 493 1695 
C 403 1695 294 1695 294 1587 
C 294 1472 397 1472 493 1472 
L 2189 1472 
L 2189 -218 
C 2189 -307 2189 -416 2298 -416 
C 2413 -416 2413 -314 2413 -218 
L 2413 1472 
z
" transform="scale(0.015625)"/>
       <path id="CMMI12-63" d="M 2502 2431 
C 2381 2431 2323 2431 2234 2355 
C 2195 2323 2125 2227 2125 2125 
C 2125 1997 2221 1920 2342 1920 
C 2496 1920 2669 2044 2669 2292 
C 2669 2588 2374 2816 1933 2816 
C 1094 2816 256 1903 256 996 
C 256 441 602 -64 1254 -64 
C 2125 -64 2675 622 2675 706 
C 2675 744 2637 776 2611 776 
C 2592 776 2586 770 2528 713 
C 2118 162 1510 64 1267 64 
C 826 64 685 446 685 764 
C 685 988 794 1605 1024 2039 
C 1190 2338 1536 2682 1939 2682 
C 2022 2682 2374 2682 2502 2431 
z
" transform="scale(0.015625)"/>
       <path id="CMMI12-62" d="M 1478 4257 
C 1485 4283 1498 4321 1498 4352 
C 1498 4416 1434 4416 1421 4416 
C 1414 4416 1184 4393 1069 4377 
C 960 4377 864 4358 749 4358 
C 595 4345 550 4339 550 4224 
C 550 4160 614 4160 678 4160 
C 1005 4160 1005 4103 1005 4040 
C 1005 3996 954 3811 928 3696 
L 774 3085 
C 710 2831 346 1387 320 1272 
C 288 1114 288 1005 288 922 
C 288 274 653 -64 1069 -64 
C 1811 -64 2579 888 2579 1814 
C 2579 2401 2246 2816 1766 2816 
C 1434 2816 1133 2542 1011 2414 
L 1478 4257 
z
M 1075 64 
C 870 64 646 217 646 715 
C 646 926 666 1047 781 1494 
C 800 1577 902 1986 928 2069 
C 941 2120 1318 2689 1754 2689 
C 2035 2689 2163 2408 2163 2076 
C 2163 1769 1984 1047 1824 715 
C 1664 370 1370 64 1075 64 
z
" transform="scale(0.015625)"/>
       <path id="CMMI12-61" d="M 1926 760 
C 1894 651 1894 639 1805 517 
C 1664 338 1382 64 1082 64 
C 819 64 672 300 672 677 
C 672 1028 870 1743 992 2012 
C 1210 2459 1510 2689 1760 2689 
C 2182 2689 2266 2165 2266 2114 
C 2266 2108 2246 2024 2240 2012 
L 1926 760 
z
M 2336 2395 
C 2266 2561 2093 2816 1760 2816 
C 1037 2816 256 1884 256 939 
C 256 307 627 -64 1062 -64 
C 1414 -64 1715 211 1894 422 
C 1958 45 2259 -64 2451 -64 
C 2643 -64 2797 51 2912 281 
C 3014 498 3104 888 3104 913 
C 3104 945 3078 971 3040 971 
C 2982 971 2976 939 2950 843 
C 2854 466 2733 64 2470 64 
C 2285 64 2272 230 2272 358 
C 2272 505 2291 575 2349 824 
C 2394 984 2426 1124 2477 1309 
C 2714 2267 2771 2497 2771 2535 
C 2771 2625 2701 2695 2605 2695 
C 2400 2695 2349 2472 2336 2395 
z
" transform="scale(0.015625)"/>
       <path id="CMR17-29" d="M 1683 1581 
C 1683 2040 1638 2817 1254 3639 
C 947 4303 422 4768 346 4768 
C 326 4768 301 4761 301 4729 
C 301 4717 307 4710 314 4697 
C 621 4378 1402 3568 1402 1584 
C 1402 -407 627 -1217 314 -1537 
C 307 -1549 301 -1556 301 -1568 
C 301 -1600 326 -1600 346 -1600 
C 416 -1600 960 -1128 1274 -426 
C 1594 281 1683 969 1683 1581 
z
" transform="scale(0.015625)"/>
       <path id="NimbusSanL-Regu-25" d="M 1274 4416 
C 678 4416 186 3911 186 3295 
C 186 2681 678 2176 1280 2176 
C 1875 2176 2368 2681 2368 3282 
C 2368 3918 1888 4416 1274 4416 
z
M 1274 3967 
C 1638 3967 1926 3668 1926 3289 
C 1926 2923 1632 2625 1280 2625 
C 922 2625 627 2931 627 3295 
C 627 3668 922 3967 1274 3967 
z
M 3898 4544 
L 1370 -128 
L 1792 -128 
L 4320 4544 
L 3898 4544 
z
M 4403 2048 
C 3808 2048 3315 1557 3315 963 
C 3315 364 3808 -128 4410 -128 
C 4998 -128 5498 364 5498 951 
C 5498 1563 5018 2048 4403 2048 
z
M 4403 1600 
C 4768 1600 5056 1315 5056 954 
C 5056 611 4762 327 4410 327 
C 4051 327 3757 611 3757 966 
C 3757 1315 4051 1600 4403 1600 
z
" transform="scale(0.015625)"/>
      </defs>
      <use xlink:href="#CMMI12-45" transform="scale(0.996264)"/>
      <use xlink:href="#CMMI12-68" transform="translate(72.211218 -14.943915)scale(0.697382)"/>
      <use xlink:href="#CMMI12-68" transform="translate(111.519272 -14.943915)scale(0.697382)"/>
      <use xlink:href="#CMMI12-3d" transform="translate(151.325459 0)scale(0.996264)"/>
      <use xlink:href="#CMR17-28" transform="translate(200.100377 0)scale(0.996264)"/>
      <use xlink:href="#CMMI12-45" transform="translate(235.381145 0)scale(0.996264)"/>
      <use xlink:href="#CMMI12-68" transform="translate(307.592363 -14.943915)scale(0.697382)"/>
      <use xlink:href="#CMMI12-68" transform="translate(346.900417 -14.943915)scale(0.697382)"/>
      <use xlink:href="#CMR17-2b" transform="translate(408.845811 0)scale(0.996264)"/>
      <use xlink:href="#CMMI12-45" transform="translate(502.699806 0)scale(0.996264)"/>
      <use xlink:href="#CMMI12-63" transform="translate(574.911024 -14.943915)scale(0.697382)"/>
      <use xlink:href="#CMMI12-62" transform="translate(604.299155 -14.943915)scale(0.697382)"/>
      <use xlink:href="#CMMI12-61" transform="translate(633.332143 -14.943915)scale(0.697382)"/>
      <use xlink:href="#CMR17-29" transform="translate(669.675621 0)scale(0.996264)"/>
      <use xlink:href="#NimbusSanL-Regu-28" transform="translate(732.651559 0)scale(0.996264)"/>
      <use xlink:href="#NimbusSanL-Regu-25" transform="translate(765.826788 0)scale(0.996264)"/>
      <use xlink:href="#NimbusSanL-Regu-29" transform="translate(854.393695 0)scale(0.996264)"/>
     </g>
    </g>
   </g>
   <g id="PathCollection_50">
    <g clip-path="url(#pbb2e874771)">
     <use xlink:href="#m19cf3432af" x="295.777195" y="36.936085" style="fill: #56b4e9; stroke: #56b4e9"/>
    </g>
   </g>
   <g id="PathCollection_51">
    <g clip-path="url(#pbb2e874771)">
     <use xlink:href="#m006f23385d" x="323.669564" y="101.038635" style="fill: #fbafe4; stroke: #fbafe4"/>
    </g>
   </g>
   <g id="PathCollection_52">
    <g clip-path="url(#pbb2e874771)">
     <use xlink:href="#mfd94c893bf" x="343.155982" y="120.97651" style="fill: #ca9161; stroke: #ca9161"/>
    </g>
   </g>
   <g id="PathCollection_53">
    <g clip-path="url(#pbb2e874771)">
     <use xlink:href="#mfd94c893bf" x="355.149273" y="85.601093" style="fill: #ca9161; stroke: #ca9161"/>
    </g>
   </g>
   <g id="PathCollection_54">
    <g clip-path="url(#pbb2e874771)">
     <use xlink:href="#m19cf3432af" x="363.344177" y="105.6329" style="fill: #56b4e9; stroke: #56b4e9"/>
    </g>
   </g>
   <g id="PathCollection_55">
    <g clip-path="url(#pbb2e874771)">
     <use xlink:href="#mfee3f0f7e7" x="365.835062" y="118.951213" style="fill: #0173b2; stroke: #0173b2"/>
    </g>
   </g>
   <g id="PathCollection_56">
    <g clip-path="url(#pbb2e874771)">
     <use xlink:href="#mb64de56a8d" x="368.439094" y="153.838193" style="fill: #cc78bc; stroke: #cc78bc"/>
    </g>
   </g>
   <g id="PathCollection_57">
    <g clip-path="url(#pbb2e874771)">
     <use xlink:href="#me0887521d8" x="369.800761" y="136.952796" style="fill: #029e73; stroke: #029e73"/>
    </g>
   </g>
   <g id="PathCollection_58">
    <g clip-path="url(#pbb2e874771)">
     <use xlink:href="#me0887521d8" x="369.825486" y="148.151557" style="fill: #029e73; stroke: #029e73"/>
    </g>
   </g>
   <g id="PathCollection_59">
    <g clip-path="url(#pbb2e874771)">
     <use xlink:href="#me0887521d8" x="387.088283" y="119.959654" style="fill: #029e73; stroke: #029e73"/>
    </g>
   </g>
   <g id="PathCollection_60">
    <g clip-path="url(#pbb2e874771)">
     <use xlink:href="#m3a99d0149c" x="387.527805" y="129.018018" style="fill: #808000; stroke: #808000"/>
    </g>
   </g>
   <g id="PathCollection_61">
    <g clip-path="url(#pbb2e874771)">
     <use xlink:href="#mfee3f0f7e7" x="390.780124" y="110.713972" style="fill: #0173b2; stroke: #0173b2"/>
    </g>
   </g>
   <g id="PathCollection_62">
    <g clip-path="url(#pbb2e874771)">
     <use xlink:href="#me28da19ad6" x="401.284784" y="93.507607" style="fill: #ece133; stroke: #ece133"/>
    </g>
   </g>
   <g id="PathCollection_63">
    <g clip-path="url(#pbb2e874771)">
     <use xlink:href="#mfee3f0f7e7" x="402.480443" y="107.591314" style="fill: #0173b2; stroke: #0173b2"/>
    </g>
   </g>
   <g id="PathCollection_64">
    <g clip-path="url(#pbb2e874771)">
     <use xlink:href="#mfee3f0f7e7" x="403.727979" y="76.492323" style="fill: #0173b2; stroke: #0173b2"/>
    </g>
   </g>
   <g id="PathCollection_65">
    <g clip-path="url(#pbb2e874771)">
     <use xlink:href="#mfd94c893bf" x="405.501361" y="156.197728" style="fill: #ca9161; stroke: #ca9161"/>
    </g>
   </g>
   <g id="PathCollection_66">
    <g clip-path="url(#pbb2e874771)">
     <use xlink:href="#mfee3f0f7e7" x="406.062523" y="129.740028" style="fill: #0173b2; stroke: #0173b2"/>
    </g>
   </g>
   <g id="PathCollection_67">
    <g clip-path="url(#pbb2e874771)">
     <use xlink:href="#mfee3f0f7e7" x="407.152377" y="164.27734" style="fill: #0173b2; stroke: #0173b2"/>
    </g>
   </g>
   <g id="PathCollection_68">
    <g clip-path="url(#pbb2e874771)">
     <use xlink:href="#mfee3f0f7e7" x="407.959468" y="87.665512" style="fill: #0173b2; stroke: #0173b2"/>
    </g>
   </g>
   <g id="PathCollection_69">
    <g clip-path="url(#pbb2e874771)">
     <use xlink:href="#mfee3f0f7e7" x="408.452949" y="123.695377" style="fill: #0173b2; stroke: #0173b2"/>
    </g>
   </g>
   <g id="PathCollection_70">
    <g clip-path="url(#pbb2e874771)">
     <use xlink:href="#mfee3f0f7e7" x="410.415527" y="139.315544" style="fill: #0173b2; stroke: #0173b2"/>
    </g>
   </g>
   <g id="PathCollection_71">
    <g clip-path="url(#pbb2e874771)">
     <use xlink:href="#mfee3f0f7e7" x="414.068997" y="131.739787" style="fill: #0173b2; stroke: #0173b2"/>
    </g>
   </g>
   <g id="PathCollection_72">
    <g clip-path="url(#pbb2e874771)">
     <use xlink:href="#mfee3f0f7e7" x="415.24941" y="91.925804" style="fill: #0173b2; stroke: #0173b2"/>
    </g>
   </g>
   <g id="PathCollection_73">
    <g clip-path="url(#pbb2e874771)">
     <use xlink:href="#mfee3f0f7e7" x="415.321789" y="121.837129" style="fill: #0173b2; stroke: #0173b2"/>
    </g>
   </g>
   <g id="PathCollection_74">
    <g clip-path="url(#pbb2e874771)">
     <use xlink:href="#mfee3f0f7e7" x="419.580681" y="108.471567" style="fill: #0173b2; stroke: #0173b2"/>
    </g>
   </g>
   <g id="PathCollection_75">
    <g clip-path="url(#pbb2e874771)">
     <use xlink:href="#mfd94c893bf" x="421.387977" y="135.483143" style="fill: #ca9161; stroke: #ca9161"/>
    </g>
   </g>
   <g id="PathCollection_76">
    <g clip-path="url(#pbb2e874771)">
     <use xlink:href="#mfee3f0f7e7" x="422.220272" y="121.321382" style="fill: #0173b2; stroke: #0173b2"/>
    </g>
   </g>
   <g id="PathCollection_77">
    <g clip-path="url(#pbb2e874771)">
     <use xlink:href="#mfee3f0f7e7" x="423.759783" y="116.980725" style="fill: #0173b2; stroke: #0173b2"/>
    </g>
   </g>
   <g id="PathCollection_78">
    <g clip-path="url(#pbb2e874771)">
     <use xlink:href="#me70b2aa621" x="425.362005" y="140.353491" style="fill: #949494; stroke: #949494"/>
    </g>
   </g>
   <g id="PathCollection_79">
    <g clip-path="url(#pbb2e874771)">
     <use xlink:href="#me70b2aa621" x="425.591076" y="164.96941" style="fill: #949494; stroke: #949494"/>
    </g>
   </g>
   <g id="PathCollection_80">
    <g clip-path="url(#pbb2e874771)">
     <use xlink:href="#mfee3f0f7e7" x="426.552551" y="187.772181" style="fill: #0173b2; stroke: #0173b2"/>
    </g>
   </g>
   <g id="PathCollection_81">
    <g clip-path="url(#pbb2e874771)">
     <use xlink:href="#mfee3f0f7e7" x="426.608358" y="128.239761" style="fill: #0173b2; stroke: #0173b2"/>
    </g>
   </g>
   <g id="PathCollection_82">
    <g clip-path="url(#pbb2e874771)">
     <use xlink:href="#mfee3f0f7e7" x="430.172765" y="136.640587" style="fill: #0173b2; stroke: #0173b2"/>
    </g>
   </g>
   <g id="PathCollection_83">
    <g clip-path="url(#pbb2e874771)">
     <use xlink:href="#mfee3f0f7e7" x="431.757227" y="124.841213" style="fill: #0173b2; stroke: #0173b2"/>
    </g>
   </g>
   <g id="PathCollection_84">
    <g clip-path="url(#pbb2e874771)">
     <use xlink:href="#mfd94c893bf" x="433.180816" y="158.951794" style="fill: #ca9161; stroke: #ca9161"/>
    </g>
   </g>
   <g id="PathCollection_85">
    <g clip-path="url(#pbb2e874771)">
     <use xlink:href="#mfee3f0f7e7" x="433.461848" y="145.988719" style="fill: #0173b2; stroke: #0173b2"/>
    </g>
   </g>
   <g id="PathCollection_86">
    <g clip-path="url(#pbb2e874771)">
     <use xlink:href="#m424e0c9d60" x="434.788725" y="131.043393" style="fill: #d55e00; stroke: #d55e00"/>
    </g>
   </g>
   <g id="PathCollection_87">
    <g clip-path="url(#pbb2e874771)">
     <use xlink:href="#m69207f0eed" x="436.414287" y="143.264209" style="fill: #de8f05; stroke: #de8f05"/>
    </g>
   </g>
   <g id="PathCollection_88">
    <g clip-path="url(#pbb2e874771)">
     <use xlink:href="#mfee3f0f7e7" x="437.07305" y="157.93045" style="fill: #0173b2; stroke: #0173b2"/>
    </g>
   </g>
   <g id="PathCollection_89">
    <g clip-path="url(#pbb2e874771)">
     <use xlink:href="#mfee3f0f7e7" x="439.068517" y="139.312191" style="fill: #0173b2; stroke: #0173b2"/>
    </g>
   </g>
   <g id="PathCollection_90">
    <g clip-path="url(#pbb2e874771)">
     <use xlink:href="#mfee3f0f7e7" x="439.392643" y="132.812498" style="fill: #0173b2; stroke: #0173b2"/>
    </g>
   </g>
   <g id="PathCollection_91">
    <g clip-path="url(#pbb2e874771)">
     <use xlink:href="#mfee3f0f7e7" x="441.030122" y="128.962758" style="fill: #0173b2; stroke: #0173b2"/>
    </g>
   </g>
   <g id="PathCollection_92">
    <g clip-path="url(#pbb2e874771)">
     <use xlink:href="#mfee3f0f7e7" x="441.415137" y="142.853052" style="fill: #0173b2; stroke: #0173b2"/>
    </g>
   </g>
   <g id="PathCollection_93">
    <g clip-path="url(#pbb2e874771)">
     <use xlink:href="#mfee3f0f7e7" x="441.710299" y="158.241693" style="fill: #0173b2; stroke: #0173b2"/>
    </g>
   </g>
   <g id="PathCollection_94">
    <g clip-path="url(#pbb2e874771)">
     <use xlink:href="#m424e0c9d60" x="446.030604" y="104.401268" style="fill: #d55e00; stroke: #d55e00"/>
    </g>
   </g>
   <g id="PathCollection_95">
    <g clip-path="url(#pbb2e874771)">
     <use xlink:href="#mfee3f0f7e7" x="448.614836" y="167.096487" style="fill: #0173b2; stroke: #0173b2"/>
    </g>
   </g>
   <g id="PathCollection_96">
    <g clip-path="url(#pbb2e874771)">
     <use xlink:href="#mfee3f0f7e7" x="452.084121" y="144.808912" style="fill: #0173b2; stroke: #0173b2"/>
    </g>
   </g>
   <g id="PathCollection_97">
    <g clip-path="url(#pbb2e874771)">
     <use xlink:href="#mfee3f0f7e7" x="460.284501" y="154.000166" style="fill: #0173b2; stroke: #0173b2"/>
    </g>
   </g>
   <g id="PathCollection_98">
    <g clip-path="url(#pbb2e874771)">
     <use xlink:href="#mfee3f0f7e7" x="479.909414" y="165.903632" style="fill: #0173b2; stroke: #0173b2"/>
    </g>
   </g>
   <g id="line2d_35">
    <path d="M 295.777195 78.610976 
L 323.669564 90.872692 
L 343.155982 99.439082 
L 355.149273 104.711432 
L 363.344177 108.313979 
L 365.835062 109.408993 
L 368.439094 110.553747 
L 369.800761 111.152347 
L 369.825486 111.163217 
L 387.088283 118.752084 
L 387.527805 118.945302 
L 390.780124 120.375048 
L 401.284784 124.992984 
L 402.480443 125.518605 
L 403.727979 126.067032 
L 405.501361 126.846626 
L 406.062523 127.093317 
L 407.152377 127.572426 
L 407.959468 127.92723 
L 408.452949 128.144168 
L 410.415527 129.006933 
L 414.068997 130.613029 
L 415.24941 131.131948 
L 415.321789 131.163766 
L 419.580681 133.036011 
L 421.387977 133.830513 
L 422.220272 134.196397 
L 423.759783 134.873178 
L 425.362005 135.577529 
L 425.591076 135.67823 
L 426.552551 136.100902 
L 426.608358 136.125435 
L 430.172765 137.692378 
L 431.757227 138.388921 
L 433.180816 139.014742 
L 433.461848 139.138286 
L 434.788725 139.721592 
L 436.414287 140.436203 
L 437.07305 140.725801 
L 439.068517 141.603024 
L 439.392643 141.745513 
L 441.030122 142.465362 
L 441.415137 142.634618 
L 441.710299 142.764374 
L 446.030604 144.663615 
L 448.614836 145.799665 
L 452.084121 147.324791 
L 460.284501 150.929746 
L 479.909414 159.557019 
" clip-path="url(#pbb2e874771)" style="fill: none; stroke: #000000; stroke-width: 1.5; stroke-linecap: square"/>
   </g>
   <g id="patch_9">
    <path d="M 286.570584 215.826326 
L 286.570584 27.386183 
" style="fill: none; stroke: #000000; stroke-width: 0.6; stroke-linejoin: miter; stroke-linecap: square"/>
   </g>
   <g id="patch_10">
    <path d="M 494.28 215.826326 
L 494.28 27.386183 
" style="fill: none; stroke: #000000; stroke-width: 0.6; stroke-linejoin: miter; stroke-linecap: square"/>
   </g>
   <g id="patch_11">
    <path d="M 286.570584 215.826326 
L 494.28 215.826326 
" style="fill: none; stroke: #000000; stroke-width: 0.6; stroke-linejoin: miter; stroke-linecap: square"/>
   </g>
   <g id="patch_12">
    <path d="M 286.570584 27.386183 
L 494.28 27.386183 
" style="fill: none; stroke: #000000; stroke-width: 0.6; stroke-linejoin: miter; stroke-linecap: square"/>
   </g>
   <g id="text_40">
    <!-- $R^2$ =0.32 -->
    <g transform="translate(411.014079 54.306203)scale(0.09 -0.09)">
     <defs>
      <path id="NimbusSanL-Regu-33" d="M 1414 2112 
L 1485 2112 
L 1722 2112 
C 2342 2112 2662 1830 2662 1284 
C 2662 712 2310 372 1722 372 
C 1107 372 806 681 768 1345 
L 205 1345 
C 230 978 294 740 403 534 
C 634 97 1082 -128 1702 -128 
C 2637 -128 3238 431 3238 1293 
C 3238 1872 3014 2194 2470 2381 
C 2893 2546 3104 2862 3104 3311 
C 3104 4082 2586 4544 1722 4544 
C 806 4544 320 4050 301 3095 
L 864 3095 
C 870 3366 896 3517 966 3655 
C 1094 3900 1376 4051 1728 4051 
C 2227 4051 2528 3760 2528 3287 
C 2528 2971 2413 2781 2163 2681 
C 2010 2618 1811 2592 1414 2592 
L 1414 2112 
z
" transform="scale(0.015625)"/>
      <path id="NimbusSanL-Regu-32" d="M 3238 558 
L 851 558 
C 909 930 1114 1167 1670 1494 
L 2310 1840 
C 2944 2186 3270 2653 3270 3211 
C 3270 3589 3117 3942 2848 4185 
C 2579 4429 2246 4544 1818 4544 
C 1242 4544 813 4339 563 3955 
C 403 3711 333 3429 320 2967 
L 883 2967 
C 902 3275 941 3461 1018 3608 
C 1165 3884 1459 4051 1798 4051 
C 2310 4051 2694 3685 2694 3198 
C 2694 2839 2483 2531 2080 2301 
L 1491 1968 
C 544 1430 269 1000 218 0 
L 3238 0 
L 3238 558 
z
" transform="scale(0.015625)"/>
     </defs>
     <use xlink:href="#CMMI12-52" transform="scale(0.996264)"/>
     <use xlink:href="#CMR17-32" transform="translate(75.070962 36.153639)scale(0.697382)"/>
     <use xlink:href="#NimbusSanL-Regu-3d" transform="translate(135.247445 0)scale(0.996264)"/>
     <use xlink:href="#NimbusSanL-Regu-30" transform="translate(193.428938 0)scale(0.996264)"/>
     <use xlink:href="#NimbusSanL-Regu-2e" transform="translate(248.820615 0)scale(0.996264)"/>
     <use xlink:href="#NimbusSanL-Regu-33" transform="translate(276.515785 0)scale(0.996264)"/>
     <use xlink:href="#NimbusSanL-Regu-32" transform="translate(331.907462 0)scale(0.996264)"/>
    </g>
   </g>
   <g id="text_41">
    <!-- b -->
    <g transform="translate(286.570584 17.386183)scale(0.108 -0.108)">
     <defs>
      <path id="NimbusSanL-Regu-62" d="M 346 4672 
L 346 -2 
L 826 -2 
L 826 448 
C 1082 57 1421 -128 1888 -128 
C 2771 -128 3347 592 3347 1702 
C 3347 2786 2797 3456 1914 3456 
C 1453 3456 1126 3282 877 2905 
L 877 4672 
L 346 4672 
z
M 1811 2956 
C 2406 2956 2790 2440 2790 1645 
C 2790 887 2394 372 1811 372 
C 1248 372 877 881 877 1664 
C 877 2447 1248 2956 1811 2956 
z
" transform="scale(0.015625)"/>
     </defs>
     <use xlink:href="#NimbusSanL-Regu-62" transform="scale(0.996264)"/>
    </g>
   </g>
  </g>
 </g>
 <defs>
  <clipPath id="p1c129ffaea">
   <rect x="40.45941" y="27.386183" width="207.709416" height="188.440143"/>
  </clipPath>
  <clipPath id="pbb2e874771">
   <rect x="286.570584" y="27.386183" width="207.709416" height="188.440143"/>
  </clipPath>
 </defs>
</svg>
